<?xml version="1.0" encoding="utf-8"?>
<svg version="1.1" xmlns:xlink="http://www.w3.org/1999/xlink" width="17px" height="15px" xmlns="http://www.w3.org/2000/svg">
  <g transform="matrix(1 0 0 1 -1466 -17 )">
    <path d="M 16.8932517740089 8.46334328298919  C 16.8932517740089 8.55579349158137  16.891306490129 8.64823342990966  16.8874172185431 8.7406015037594  C 16.6437759328422 12.2905017290545  13.674771339858 15.0316860150473  10.1230684253415 14.9859022556391  L 2.57533112582781 14.9859022556391  C 2.31625715782498 14.9859022556391  2.10623621042012 14.7755097541477  2.10623621042012 14.5159774509516  L 2.10623621042012 14.0460526242364  C 2.10623621042012 13.7865203210402  2.31625715782498 13.5761278195489  2.57533112582781 13.5761278195489  L 10.3200882928911 13.5761278195489  C 10.3280946542433 13.5761651543207  10.3361010914934 13.5761838217824  10.3441075395865 13.5761838217824  C 13.1939212361941 13.5761838217824  15.5041516970265 11.2618662659286  15.5041516970265 8.40701088210898  C 15.5041516970265 8.24066168636956  15.4961359534313 8.07440945116343  15.4801324503311 7.90883458646616  C 15.1726498339558 5.22498034926347  12.8899718975421 3.20812499609213  10.1934326637521 3.23778196222979  L 4.60182119205298 3.23778196222979  L 4.60182119205298 4.34210526315789  C 4.60015470157983 4.55920922794316  4.48182794656577 4.75856537976564  4.29221854304636 4.86372180451128  C 4.20597324373241 4.90593624714759  4.11143591701101 4.92840852119402  4.01545253130174 4.92951128553806  C 3.90241284056488 4.92888729282928  3.79184496824347 4.89630979434054  3.69646799849959 4.83552631578947  L 0.783388528300911 3.23778196222979  L 0.544150117704885 3.10150375939849  L 0.323675496688743 2.96052631578947  C 0.185711271470191 2.86937114669979  0.0921460675124642 2.72451455812209  0.0656732965128319 2.56109023290648  C 0.063478624016364 2.5518203116167  0.063478624016364 2.54216466547446  0.0656732965128319 2.53289474418468  C 0.0635422432671415 2.51415836606444  0.0635422432671419 2.49524014486131  0.0656732965128319 2.47650376674107  C 0.0755029923237183 2.28628771452678  0.174685210902496 2.11197598155567  0.333057402473097 2.00657894002585  L 3.70584988229512 0.126879699248121  C 3.84322917541265 0.0333078926445721  4.01441681670048 0.00415450685224688  4.17494481969164 0.0469924738604336  C 4.22175210659928 0.0600837765591183  4.26728301433696 0.0773846786571053  4.31098233262624 0.0986842105263166  C 4.43220418415394 0.164870300234189  4.52671687661978 0.271177551065303  4.57836643858651 0.39943608288299  C 4.60636940782563 0.468045820492391  4.62071129411602 0.541478482250207  4.62058498163286 0.615601511101975  L 4.62058498163286 1.88439850358318  L 10.3200882928911 1.88439850358318  C 10.3220331442354 1.88439677267818  10.3239779962453 1.88439590722556  10.325922848357 1.88439590722556  C 13.9529584611172 1.88439590722556  16.8932517740089 4.82989097741562  16.8932517740089 8.46334328298919  Z " fill-rule="nonzero" fill="#d7d7d7" stroke="none" transform="matrix(1 0 0 1 1466 17 )" />
  </g>
</svg>