<?xml version="1.0" encoding="utf-8"?>
<svg version="1.1" xmlns:xlink="http://www.w3.org/1999/xlink" width="15px" height="20px" xmlns="http://www.w3.org/2000/svg">
  <g transform="matrix(1 0 0 1 -98 -11 )">
    <path d="M 12.2048268412109 2.38061431706081  L 1.8236291578125 2.38061431706081  C 0.867877857421875 2.38061431706081  0.093429543945313 3.17592957593961  0.0934295441406253 4.1575119927576  L 0.0934295441406253 5  L 13.9349848525391 5  L 13.9349848525391 4.1575119927576  C 13.9350056535156 3.1759295761402  13.1605781412109 2.38061431706081  12.2048060398437 2.38061431706081  Z M 9.18260423300781 1.19601586699747  L 9.4371689359375 3.06545962850507  L 4.59128706269531 3.06545962850507  L 4.84583096464844 1.19601586699747  L 9.18262503417969 1.19601586699747  Z M 10.3056801349609 0.891182047423987  C 10.2397404300781 0.407045526330237  9.79707075820313 0.0114174165329398  9.32116081796875 0.0114174165329398  L 4.70735758457031 0.0114174165329398  C 4.23142684375 0.0114174165329398  3.7887363703125 0.407066890097129  3.72227663613281 0.891780221463261  L 3.38490248007813 3.37027208471284  C 3.31900437753906 3.85436587907517  3.65469363886719 4.25003671560389  4.1306243796875 4.25003671580448  L 9.89791482382812 4.25003671580448  C 10.3738247634766 4.25003671580448  10.7095140248047 3.85440860580659  10.6430750914062 3.36969527403927  L 10.3056801349609 0.891182047423987  Z M 13.5424667982422 7.11430817906461  C 13.5998988251953 6.46535331659629  13.1273586748047 5.93436694192357  12.4931934433594 6  L 1.53528335644531 6  C 0.901097323632813 5.93436694152238  0.428557173242188 6.46535331639569  0.4860100015625 7.11432954202914  L 1.43111110332031 17.7848804780933  C 1.48798149882813 18.4338780672931  2.05458453398438 18.9648430790013  2.68874976582031 18.9648430786001  L 11.3397478353516 18.9648430786001  C 11.9739130667969 18.9648430786001  12.5405161021484 18.4338353403611  12.5973864978516 17.7848804780933  L 13.5424667982422 7.11430817906461  Z M 4.70729518066406 8.30356384205025  L 4.70729518066406 16.595688904603  L 2.97709556699219 16.595688904603  L 2.40036236230469 8.30356384205025  L 4.70729518066406 8.30356384205025  Z M 8.16769440878906 16.595688904603  L 5.86078239121094 16.595688904603  L 5.86078239121094 8.30356384205025  L 8.16771520996094 8.30356384205025  L 8.16771520996094 16.595688904603  Z M 11.0513396306641 16.595688904603  L 9.32114001660156 16.595688904603  L 9.32114001660156 8.30356384205025  L 11.6280520341797 8.30356384205025  L 11.0513604320313 16.595688904603  Z " fill-rule="nonzero" fill="#495660" stroke="none" transform="matrix(1 0 0 1 98 11 )" />
  </g>
</svg>