<?xml version="1.0" encoding="utf-8"?>
<svg version="1.1" xmlns:xlink="http://www.w3.org/1999/xlink" width="17px" height="15px" xmlns="http://www.w3.org/2000/svg">
  <g transform="matrix(1 0 0 1 -1528 -17 )">
    <path d="M 0.106748225991088 8.46334328298919  C 0.106748225991088 8.55579349158137  0.108693509871001 8.64823342990966  0.11258278145695 8.7406015037594  C 0.356224067157777 12.2905017290545  3.32522866014197 15.0316860150473  6.87693157465853 14.9859022556391  L 14.4246688741722 14.9859022556391  C 14.683742842175 14.9859022556391  14.8937637895799 14.7755097541477  14.8937637895799 14.5159774509516  L 14.8937637895799 14.0460526242364  C 14.8937637895799 13.7865203210402  14.683742842175 13.5761278195489  14.4246688741722 13.5761278195489  L 6.67991170710886 13.5761278195489  C 6.67190534575669 13.5761651543207  6.66389890850661 13.5761838217824  6.65589246041349 13.5761838217824  C 3.8060787638059 13.5761838217824  1.49584830297351 11.2618662659286  1.49584830297351 8.40701088210898  C 1.49584830297351 8.24066168636956  1.50386404656869 8.07440945116343  1.51986754966887 7.90883458646616  C 1.82735016604421 5.22498034926347  4.11002810245792 3.20812499609213  6.80656733624793 3.23778196222979  L 12.398178807947 3.23778196222979  L 12.398178807947 4.34210526315789  C 12.3998452984202 4.55920922794316  12.5181720534342 4.75856537976564  12.7077814569536 4.86372180451128  C 12.7940267562676 4.90593624714759  12.888564082989 4.92840852119402  12.9845474686983 4.92951128553806  C 13.0975871594351 4.92888729282928  13.2081550317565 4.89630979434054  13.3035320015004 4.83552631578947  L 16.2166114716991 3.23778196222979  L 16.4558498822951 3.10150375939849  L 16.6763245033113 2.96052631578947  C 16.8142887285298 2.86937114669979  16.9078539324875 2.72451455812209  16.9343267034872 2.56109023290648  C 16.9365213759836 2.5518203116167  16.9365213759836 2.54216466547446  16.9343267034872 2.53289474418468  C 16.9364577567329 2.51415836606444  16.9364577567329 2.49524014486131  16.9343267034872 2.47650376674107  C 16.9244970076763 2.28628771452678  16.8253147890975 2.11197598155567  16.6669425975269 2.00657894002585  L 13.2941501177049 0.126879699248121  C 13.1567708245873 0.0333078926445721  12.9855831832995 0.00415450685224688  12.8250551803084 0.0469924738604336  C 12.7782478934007 0.0600837765591183  12.732716985663 0.0773846786571053  12.6890176673738 0.0986842105263166  C 12.5677958158461 0.164870300234189  12.4732831233802 0.271177551065303  12.4216335614135 0.39943608288299  C 12.3936305921744 0.468045820492391  12.379288705884 0.541478482250207  12.3794150183671 0.615601511101975  L 12.3794150183671 1.88439850358318  L 6.67991170710886 1.88439850358318  C 6.67796685576465 1.88439677267818  6.67602200375473 1.88439590722556  6.67407715164299 1.88439590722556  C 3.04704153888279 1.88439590722556  0.106748225991088 4.82989097741562  0.106748225991088 8.46334328298919  Z " fill-rule="nonzero" fill="#d7d7d7" stroke="none" transform="matrix(1 0 0 1 1528 17 )" />
  </g>
</svg>