<?xml version="1.0" encoding="utf-8"?>
<svg version="1.1" xmlns:xlink="http://www.w3.org/1999/xlink" width="14px" height="13px" xmlns="http://www.w3.org/2000/svg">
  <g transform="matrix(1 0 0 1 -1842 -18 )">
    <path d="M 9.06958181673167 4.95992883203125  L 12.343061397461 1.69774426171875  L 12.3318316725261 3.546404203125  C 12.3273267190755 3.69971925358073  12.4512943424479 3.83496555403646  12.6046093929037 3.83046061653646  L 12.8007540800781 3.83046061653646  C 12.9540691305338 3.82593934570313  13.0825580247397 3.73577515071615  13.0848104934896 3.5802076155599  L 13.093836701823 0.827506287434897  C 13.093836701823 0.825237485351565  13.0983416552735 0.6809649765625  13.0983416552735 0.6809649765625  C 13.1006104573569 0.604331927408854  13.0825417073568 0.534423665690106  13.0329383310548 0.484820289388022  C 12.9833349547525 0.435216913085938  12.9157444472655 0.403682302734374  12.8367936438801 0.405918454101563  L 12.6970097552082 0.408187256184895  C 12.6947572864583 0.408187256184895  12.6925701031901 0.408187256184895  12.6903013011067 0.410456058268231  L 9.9601247083333 0.399144714518229  C 9.80680965787769 0.403665985351562  9.67832076367176 0.529951362955728  9.67606829492183 0.685469914062502  L 9.67606829492183 0.881614601236979  C 9.69865831575521 1.0642281266276  9.84288185644527 1.17019228548177  9.9961969069011 1.16567101464844  L 11.7952534720052 1.17019228548177  L 8.53080009960945 4.42114713085937  C 8.38198998665371 4.5699572438151  8.38198998665371 4.81113505240885  8.53080009960945 4.95992883203125  C 8.67961021256519 5.11099141373698  8.92083698925785 5.11099141373698  9.06964710221359 4.95992883203125  Z M 4.94390036100253 8.03502759016927  L 1.66816831152346 11.2859987529297  L 1.67944700455723 9.44628341699219  C 1.68396827539073 9.29303365201823  1.55993536653637 9.1577873515625  1.40662031608076 9.16222700358073  L 1.19924591992185 9.16222700358073  C 1.04593086946625 9.16674827441406  0.917441975260317 9.25692880273438  0.915189506510387 9.4124963219401  L 0.906163298177034 12.1674501347656  C 0.906163298177034 12.169718936849  0.901658344726457 12.313991445638  0.901658344726457 12.313991445638  C 0.899389542643121 12.3906897802734  0.917458292643232 12.4605327565104  0.966996383463538 12.5101361328125  C 1.01659975976554 12.5597395091146  1.08425555273448 12.5912741194661  1.16314107063795 12.589037968099  L 1.30290864192716 12.5867691660156  C 1.3051774440105 12.5867691660156  1.30742991276043 12.5867691660156  1.30969869889327 12.5845003639323  L 4.05117031803388 12.595795374349  C 4.20442008300779 12.5912741035156  4.33297426269542 12.4650540113932  4.33522673144535 12.3094701748047  L 4.33522671549485 12.1133418209635  C 4.31265302799488 11.9307282955729  4.16836418587241 11.8247641367188  4.0150328020834 11.8292854075521  L 2.21595991959634 11.8247641367188  L 5.47816080729172 8.5738582594401  C 5.62697092024746 8.42504814648438  5.62697092024746 8.18380505240886  5.47816080729172 8.03501125683594  C 5.331684781901 7.88394867513021  5.09271047395828 7.88394867513021  4.94390036100253 8.03502759016927  Z M 13.0938530351561 12.1674501347656  L 13.0870792955729 9.4124963219401  C 13.0825580247397 9.25916495410156  12.9562726471354 9.16674827441406  12.8030065647786 9.16222700358073  L 12.6068782109376 9.16222700358073  C 12.453546843099 9.1577873515625  12.3318316884765 9.29303365201823  12.3340352050782 9.44628341699219  L 12.3453302154949 11.2950086438802  L 9.06958181673167 8.03502759016927  C 8.92077170377615 7.88621747721354  8.67954492708327 7.88621747721354  8.53073481412753 8.03502759016927  C 8.3819900026042 8.18382136979167  8.3819900026042 8.42506447981771  8.53073481412753 8.57387459277344  L 11.7929846858724 11.8247641367188  L 9.99392812076826 11.8292854075521  C 9.84061307031243 11.8247641367188  9.69859303027351 11.9329970976563  9.67375054069021 12.1133418209635  L 9.67375054069021 12.309486508138  C 9.67825549414056 12.4628015585938  9.80455718912754 12.5912904527995  9.95780695410167 12.5958117076823  L 12.6879998802083 12.5845166972656  C 12.6902523489584 12.5845166972656  12.6925048336589 12.586785499349  12.6947736197917 12.586785499349  L 12.8345575084636 12.5890543014323  C 12.911174224284 12.5913067701823  12.981098819336 12.5620246285807  13.0306858623046 12.5101524661458  C 13.0802892386068 12.4605490898438  13.0982926871745 12.3907061136068  13.0960402184244 12.3140077789714  C 13.0960402184244 12.3140077789714  13.093771416341 12.169718936849  13.093771416341 12.167466468099  Z M 2.21829399121089 1.17019226953125  L 4.01735055631502 1.16567099869792  C 4.17060032128916 1.17019226953125  4.31263667871099 1.06195930859375  4.33747916829429 0.881614585286457  L 4.33747918424478 0.685453596679686  C 4.33295791341152 0.532138546223958  4.20673782128915 0.403649652018228  4.05342277083332 0.399128397135417  L 1.30974765104156 0.410423407552084  C 1.30747884895823 0.410423407552084  1.3052263802083 0.408154605468749  1.30295759407545 0.408154605468749  L 1.16320634016938 0.405885803385416  C 1.08650800553391 0.403633334635416  1.01666502929697 0.432915476236978  0.967061652994744 0.484787638671875  C 0.917458276692741 0.534391014973959  0.899389542643121 0.604233991210936  0.901723614257889 0.680932325846353  C 0.901723614257889 0.680932325846353  0.90622856770824 0.825221167968749  0.90622856770824 0.82747363671875  L 0.912937021809967 3.58242744954427  C 0.915205823893302 3.73569353190104  1.0437436702473 3.82817549707031  1.19699343522143 3.83263148242187  L 1.40443311686204 3.83263148242187  C 1.55774816731764 3.8371364358724  1.67946330598966 3.70189011946615  1.67719451985681 3.54857506901042  L 1.66818462890615 1.70892501855469  L 4.94172949511722 4.96216498339844  C 5.09045798925786 5.11097509635417  5.33170109928392 5.11097509635417  5.48049487890626 4.96216498339844  C 5.629304991862 4.81335487044271  5.629304991862 4.57212809375  5.48049487890626 4.42331798079427  L 2.21829399121089 1.17019226953125  Z " fill-rule="nonzero" fill="#000000" stroke="none" transform="matrix(1 0 0 1 1842 18 )" />
  </g>
</svg>