<?xml version="1.0" encoding="utf-8"?>
<svg version="1.1" xmlns:xlink="http://www.w3.org/1999/xlink" width="20px" height="14px" xmlns="http://www.w3.org/2000/svg">
  <g transform="matrix(1 0 0 1 -135 -72 )">
    <path d="M 7.62285444711538 10.7246777177527  L 5.41292448918269 7.76464557014628  C 5.12014140625 7.37248502742686  4.64545408653846 7.37248907081117  4.35267397836538 7.76464557014628  L 0.278594140625 13.2215638713431  C -0.014188942307691 13.6137244431516  0.160506640625001 13.9316261095412  0.668780979567307 13.9316261095412  L 8.06805826322115 14  L 19.3346947716346 14  C 19.8432544771635 13.9316261095412  20.0140599759615 13.6144196725399  19.7184329927885 13.2231257230718  L 13.2621208533654 4.67750637882313  C 12.96453671875 4.28362189993351  12.4871877704327 4.28621242935505  12.1915607872596 4.67750637882313  L 7.62285444711538 10.7246777177527  Z M 2.82665438701923 1.77891025598404  C 2.82665438701923 2.73773305982888  3.62955844343569 3.51501251870014  4.61999079026442 3.51501251870014  C 5.61042313709315 3.51501251870014  6.41332719350962 2.73773305982888  6.41332719350962 1.77891025598404  C 6.41332719350962 0.820087452139211  5.61042313709315 0.0428079932679505  4.61999079026442 0.0428079932679505  C 3.62955844343569 0.0428079932679505  2.82665438701923 0.820087452139211  2.82665438701923 1.77891025598404  Z " fill-rule="nonzero" fill="#ebfbff" stroke="none" transform="matrix(1 0 0 1 135 72 )" />
  </g>
</svg>