<?xml version="1.0" encoding="utf-8"?>
<svg version="1.1" xmlns:xlink="http://www.w3.org/1999/xlink" width="20px" height="17px" xmlns="http://www.w3.org/2000/svg">
  <g transform="matrix(1 0 0 1 -426 -17 )">
    <path d="M 18.44447265625 9.65432508680555  L 19.33333984375 8.91976128472222  L 10 0.104940321180554  L 0.66666015624998 8.91976128472222  L 1.555546875 9.65432508680555  L 3.33333984375 7.97531684027777  L 3.33333984375 16.8950412326389  L 8.88886718749999 16.8950412326389  L 8.88886718749999 12.6975390625  L 11.1111328125 12.6975390625  L 11.1111328125 16.8950412326389  L 16.6666796875 16.8950412326389  L 16.6666796875 7.97531684027777  L 18.44447265625 9.65432508680555  Z M 15.555546875 6.92593207465278  L 15.555546875 15.8456749131944  L 12.2222265625 15.8456749131944  L 12.2222265625 11.648154296875  L 7.77777343750002 11.648154296875  L 7.77777343750002 15.8456749131944  L 4.44445312500002 15.8456749131944  L 4.44445312500002 6.92593207465278  L 10 1.57406792534723  L 15.555546875 6.92593207465278  Z " fill-rule="nonzero" fill="#363636" stroke="none" transform="matrix(1 0 0 1 426 17 )" />
  </g>
</svg>