<?xml version="1.0" encoding="utf-8"?>
<svg version="1.1" xmlns:xlink="http://www.w3.org/1999/xlink" width="19px" height="19px" xmlns="http://www.w3.org/2000/svg">
  <g transform="matrix(1 0 0 1 -59 -11 )">
    <path d="M 10.7322857142857 6.27135714285714  L 11.1964285714286 6.7355  L 12.8046428571429 5.12728571428571  L 13.7641428571429 6.08678571428571  L 12.1559285714286 7.695  L 12.6526428571429 8.19035714285714  L 16.0807857142857 4.76085714285714  L 14.1617857142857 2.84185714285714  L 10.7322857142857 6.27135714285714  Z M 10.925 10.3007142857143  L 10.2369285714286 9.61264285714286  L 9.61807142857143 10.2328571428571  L 10.3102142857143 10.925  C 11.2629285714286 11.8790714285714  11.267 13.4235  10.3142857142857 14.3762142857143  L 6.49392857142857 18.1965714285714  C 5.54121428571428 19.1492857142857  3.99678571428571 19.1465714285714  3.04271428571428 18.1925  L 0.739642857142856 15.8894285714286  C -0.213358496992358 14.9373603700634  -0.214573463405437 13.3931380590389  0.73692857142857 12.4395714285714  L 4.55592857142857 8.61785714285714  C 5.51 7.66514285714286  7.05442857142857 7.66785714285714  8.00714285714286 8.62192857142857  L 8.65857142857143 9.27335714285714  L 9.27742857142857 8.65314285714286  L 8.62192857142857 7.99628571428571  C 7.66855186685598 7.04459233647028  7.66672941672733 5.50036959412681  8.61785714285714 4.54642857142857  L 12.4382142857143 0.726071428571428  C 13.3909285714286 -0.226642857142857  14.9353571428571 -0.223928571428572  15.8894285714286 0.730142857142857  L 18.1925 3.03321428571429  C 19.1452142857143 3.98592857142857  19.1492857142857 5.53035714285714  18.1952142857143 6.48442857142857  L 14.3762142857143 10.3034285714286  C 13.4221428571429 11.2561428571429  11.8777142857143 11.2534285714286  10.925 10.3007142857143  Z M 7.69771428571428 12.1518571428571  L 7.69907142857143 12.1518571428571  L 6.08678571428571 13.7641428571429  L 5.12728571428571 12.8046428571429  L 6.73957142857143 11.1923571428571  L 6.2795 10.7336428571429  L 2.85135714285714 14.1631428571429  L 4.77035714285714 16.0821428571429  L 8.19985714285714 12.6526428571429  L 7.69771428571428 12.1518571428571  Z " fill-rule="nonzero" fill="#495660" stroke="none" transform="matrix(1 0 0 1 59 11 )" />
  </g>
</svg>