<?xml version="1.0" encoding="utf-8"?>
<svg version="1.1" xmlns:xlink="http://www.w3.org/1999/xlink" width="15px" height="15px" xmlns="http://www.w3.org/2000/svg">
  <g transform="matrix(1 0 0 1 -1882 -17 )">
    <path d="M 10.6060014204545 2.88688858695652  C 10.3924405728701 2.76405503542418  10.2618191377321 2.54313474649409  10.2618191377321 2.30477241847826  C 10.2618191377321 1.92963200636484  10.5797537736996 1.62552061543943  10.9719460227273 1.62552061543943  C 11.1008848297719 1.62552061543943  11.2273905659804 1.65910005584065  11.337890625 1.72265625  C 13.5845602118526 3.01148608236421  14.9587775037657 5.33400431346494  14.9573863636364 7.83984375  C 14.9573863636364 11.7793817934783  11.6186079545455 14.972995923913  7.5 14.972995923913  C 3.38139204545455 14.972995923913  0.0426136363636364 11.7793817934783  0.0426136363636364 7.83984375  C 0.0426136363636364 5.30400815217391  1.43821022727273 2.99847146739131  3.66956676136364 1.71807065217391  C 3.77989257982216 1.654836247029  3.90609608393207 1.62143734511627  4.03471235795455 1.62143734511627  C 4.42705584746059 1.62143734511627  4.74511308806026 1.92566601003769  4.74511308806026 2.30095108695652  C 4.74511308806026 2.53977919479715  4.61403445938146 2.76107400161783  4.39985795454546 2.88383152173913  C 2.57708652911256 3.92636731198535  1.46172538281343 5.80891473811926  1.46324573863636 7.84035326086956  C 1.46324573863636 11.0288722826087  4.16548295454546 13.6141304347826  7.5 13.6141304347826  C 10.8345170454545 13.6141304347826  13.5367542613636 11.0288722826087  13.5367542613636 7.83984375  C 13.5367542613636 5.78855298913044  12.4106889204545 3.92476222826087  10.6060014204545 2.88739809782609  Z M 6.78995028409091 0.706691576086956  C 6.78995028409091 0.331182065217391  7.10795454545455 0.0270040760869564  7.5 0.0270040760869564  C 7.89204545454546 0.0270040760869564  8.21004971590909 0.331182065217391  8.21004971590909 0.706691576086956  L 8.21004971590909 6.14113451086957  C 8.21004971590909 6.51623415668705  7.89214962971828 6.8203125  7.5 6.8203125  C 7.10785037028172 6.8203125  6.78995028409091 6.51623415668705  6.78995028409091 6.14113451086957  L 6.78995028409091 0.706691576086956  Z " fill-rule="nonzero" fill="#2c2c2c" stroke="none" transform="matrix(1 0 0 1 1882 17 )" />
  </g>
</svg>