<?xml version="1.0" encoding="utf-8"?>
<svg version="1.1" xmlns:xlink="http://www.w3.org/1999/xlink" width="19px" height="19px" xmlns="http://www.w3.org/2000/svg">
  <g transform="matrix(1 0 0 1 -10 -11 )">
    <path d="M 8.2784795049267 1.76462473919198  C 8.2784795049267 0.849866178568294  7.53506544814343 0.106452121576545  6.62030688751975 0.106452121368065  L 1.76186111793364 0.106452121368065  C 0.847102557309954 0.106452121368065  0.103688500318206 0.849866178151334  0.103688500526685 1.76462473919198  L 0.103688500526685 6.62307050856961  C 0.103688500526685 7.53782906919329  0.847102557309954 8.28124312618504  1.76186111793364 8.28124312597656  L 6.62030688751975 8.28124312597656  C 7.53506544814344 8.28124312597656  8.27847950513518 7.53782906919329  8.2784795049267 6.62307050856961  L 8.2784795049267 1.76462473919198  Z M 8.2784795049267 12.3769294914304  C 8.2784795049267 11.4649345516481  7.53506544814343 10.718756873815  6.62030688751975 10.7187568740234  L 1.76186111793364 10.7187568740234  C 0.847102557309954 10.7187568740234  0.103688500318206 11.4621709308067  0.103688500526685 12.3769294914304  L 0.103688500526685 17.235375260808  C 0.103688500526685 18.1501338214317  0.847102557309954 18.8935478784235  1.76186111793364 18.8935478786319  L 6.62030688751975 18.8935478786319  C 7.53506544814344 18.8935478786319  8.27847950513518 18.1501338218487  8.2784795049267 17.235375260808  L 8.2784795049267 12.3769294914304  Z M 18.8963114994733 1.76462473919198  C 18.8963114994733 0.849866178568294  18.15289744269 0.106452121576545  17.2381388820664 0.106452121368065  L 12.3796931124802 0.106452121368065  C 11.4649345518566 0.106452121368065  10.7215204948648 0.849866178151334  10.7215204950733 1.76462473919198  L 10.7215204950733 6.62307050856961  C 10.7215204950733 7.53782906919329  11.4649345518566 8.28124312618504  12.3796931124802 8.28124312597656  L 17.2381388820664 8.28124312597656  C 18.15289744269 8.28124312597656  18.8963114996818 7.53782906919329  18.8963114994733 6.62307050856961  L 18.8963114994733 1.76462473919198  Z M 18.8963114994733 12.3769294914304  C 18.8963114994733 11.4649345516481  18.15289744269 10.718756873815  17.2381388820664 10.7187568740234  L 12.3796931124802 10.7187568740234  C 11.4649345518566 10.7187568740234  10.7215204948648 11.4621709308067  10.7215204950733 12.3769294914304  L 10.7215204950733 17.235375260808  C 10.7215204950733 18.1501338214317  11.4649345518566 18.8935478784235  12.3796931124802 18.8935478786319  L 17.2381388820664 18.8935478786319  C 18.15289744269 18.8935478786319  18.8963114996818 18.1501338218487  18.8963114994733 17.235375260808  L 18.8963114994733 12.3769294914304  Z " fill-rule="nonzero" fill="#495660" stroke="none" transform="matrix(1 0 0 1 10 11 )" />
  </g>
</svg>