<?xml version="1.0" encoding="utf-8"?>
<svg version="1.1" xmlns:xlink="http://www.w3.org/1999/xlink" width="16px" height="20px" xmlns="http://www.w3.org/2000/svg">
  <g transform="matrix(1 0 0 1 -119 -971 )">
    <path d="M 15.9710144927536 10  C 15.9710144927536 9.70588235294118  15.8260869565217 9.41176470588235  15.536231884058 9.26470588235294  L 1.40579710144927 0.147058823529411  C 1.11594202898551 0  0.753623188405795 0  0.463768115942028 0.147058823529411  C 0.17391304347826 0.294117647058824  0.028985507246376 0.588235294117647  0 0.88235294117647  L 0 19.0441176470588  C 0.028985507246376 19.3382352941176  0.17391304347826 19.7058823529412  0.463768115942028 19.8529411764706  C 0.608695652173912 19.9264705882353  0.753623188405796 20  0.89855072463768 20  C 1.04347826086956 20  1.26086956521739 19.9264705882353  1.40579710144927 19.8529411764706  L 15.536231884058 10.7352941176471  C 15.8260869565217 10.5882352941176  15.9710144927536 10.2941176470588  15.9710144927536 10  Z " fill-rule="nonzero" fill="#ffffff" stroke="none" transform="matrix(1 0 0 1 119 971 )" />
  </g>
</svg>