<?xml version="1.0" encoding="utf-8"?>
<svg version="1.1" xmlns:xlink="http://www.w3.org/1999/xlink" width="19px" height="19px" xmlns="http://www.w3.org/2000/svg">
  <g transform="matrix(1 0 0 1 -20 -11 )">
    <path d="M 7.10372999237805 9.52035714285714  C 7.10372999237805 10.7605939119805  8.17657661831348 11.7660044642857  9.5 11.7660044642857  C 10.8234233816865 11.7660044642857  11.896270007622 10.7605939119805  11.896270007622 9.52035714285714  C 11.896270007622 8.28012037373377  10.8234233816865 7.27470982142857  9.5 7.27470982142857  C 8.17657661831348 7.27470982142857  7.10372999237805 8.28012037373377  7.10372999237805 9.52035714285714  Z M 18.8836937881098 11.84234375  C 18.7162490472561 11.2464732142857  18.3066882621951 10.7460267857143  17.7364710365854 10.4364285714286  L 17.5509241615854 10.3346428571429  C 17.0983708079268 10.0886607142857  17.0485899390244 9.68363839285714  17.0485899390244 9.52035714285714  C 17.0485899390244 9.35707589285714  17.0983708079268 8.94993303571429  17.5509241615854 8.70607142857143  L 17.7364710365854 8.60640625  C 18.3089510289634 8.29680803571429  18.7185118140244 7.79848214285714  18.8882193216463 7.20049107142857  C 19.0601895960366 6.6025  18.9719416920732 5.9790625  18.6415777439024 5.44256696428572  L 17.8428210746951 4.14479910714286  C 17.5124571265244 3.60830357142857  16.9807069359756 3.22448660714286  16.3426067073171 3.06544642857143  C 15.7045064786585 2.90640625  15.0392530487805 2.98698660714286  14.4667730564024 3.29658482142857  L 14.2812261814024 3.39625  C 13.8286728277439 3.64223214285715  13.4281631097561 3.47895089285715  13.2765577362805 3.39625  C 13.1249523628049 3.31354910714286  12.7742235137195 3.07180803571429  12.7742235137195 2.58196428571429  L 12.7742235137195 2.38051339285715  C 12.7742235137195 1.10395089285715  11.6654677972561 0.0627678571428602  10.3010194359756 0.0627678571428602  L 8.70350609756098 0.0627678571428602  C 7.34132050304878 0.0627678571428602  6.23030201981707 1.10183035714286  6.23030201981707 2.38051339285715  L 6.23030201981707 2.58196428571429  C 6.23030201981707 2.99758928571429  5.974609375 3.23508928571429  5.82300400152439 3.33899553571429  C 5.56052305640244 3.51712053571429  5.13286013719512 3.62738839285715  4.71877381859756 3.40049107142857  L 4.5196503429878 3.29022321428572  C 4.4608184070122 3.25841517857143  4.41103753810976 3.23084821428572  4.34768006859756 3.20328125  C 4.34541730182927 3.20328125  4.34315453506098 3.20116071428572  4.34315453506098 3.20116071428572  C 3.17556688262195 2.69223214285715  1.80659298780488 3.09725446428572  1.16170445884146 4.14479910714286  L 0.358422256097561 5.44044642857143  C 0.0280583079268293 5.97694196428571  -0.0601895960365854 6.60037946428571  0.111780678353659 7.19837053571429  C 0.283750952743902 7.79636160714286  0.691048971036585 8.2946875  1.26352896341463 8.60428571428571  L 1.44907583841463 8.70607142857143  C 1.90162919207317 8.95205357142857  1.95141006097561 9.35707589285714  1.95141006097561 9.52035714285714  C 1.95141006097561 9.68363839285714  1.90162919207317 10.09078125  1.44907583841463 10.3346428571429  L 1.26352896341463 10.4343080357143  C 0.691048971036585 10.74390625  0.28148818597561 11.2422321428571  0.111780678353659 11.8402232142857  C -0.0601895960365854 12.4382142857143  0.0280583079268293 13.0616517857143  0.358422256097561 13.5981473214286  L 1.15717892530488 14.8959151785714  C 1.48754287347561 15.4324107142857  2.01929306402439 15.8162276785714  2.65739329268293 15.9752678571429  C 3.29549352134146 16.1343080357143  3.96074695121951 16.0537276785714  4.53322694359756 15.7441294642857  L 4.71877381859756 15.6444642857143  C 5.1713271722561 15.3984821428571  5.5718368902439 15.5617633928571  5.72344226371951 15.6444642857143  C 5.87504763719512 15.7271651785714  6.22577648628049 15.96890625  6.22577648628049 16.45875  L 6.22577648628049 16.6602008928571  C 6.22577648628049 17.9367633928571  7.3345322027439 18.9779464285714  8.69898056402439 18.9779464285714  L 10.296493902439 18.9779464285714  C 11.6586794969512 18.9779464285714  12.7696979801829 17.9388839285714  12.7696979801829 16.6602008928571  L 12.7696979801829 16.45875  C 12.7696979801829 15.96890625  13.1204268292683 15.7250446428571  13.2720322027439 15.6444642857143  C 13.4236375762195 15.5617633928571  13.821884527439 15.3984821428571  14.2767006478659 15.6444642857143  L 14.4622475228659 15.74625  C 15.0347275152439 16.0558482142857  15.699980945122 16.1385491071429  16.3380811737805 15.9773883928571  C 16.976181402439 15.8162276785714  17.5079315929878 15.43453125  17.8382955411585 14.8980357142857  L 18.6370522103659 13.6002678571429  C 18.9674161585366 13.0637723214286  19.0556640625 12.4403348214286  18.8836937881098 11.84234375  Z M 13.5118854801829 9.52035714285714  C 13.5118854801829 11.5942410714286  11.7129858993902 13.2821875  9.5 13.2821875  C 7.28701410060976 13.2821875  5.48811451981707 11.5963616071429  5.48811451981707 9.52247767857143  C 5.48811451981707 7.44859375  7.28701410060976 5.76064732142857  9.5 5.76064732142857  C 11.7129858993902 5.76064732142857  13.5118854801829 7.44647321428571  13.5118854801829 9.52035714285714  Z " fill-rule="nonzero" fill="#495660" stroke="none" transform="matrix(1 0 0 1 20 11 )" />
  </g>
</svg>