<?xml version="1.0" encoding="utf-8"?>
<svg version="1.1" xmlns:xlink="http://www.w3.org/1999/xlink" width="19px" height="20px" xmlns="http://www.w3.org/2000/svg">
  <g>
    <path d="M 8.71382168488198 19.2860892384555  C 8.71180066489362 19.9560055078232  8.26111231923205 20.1779777538628  7.69724661735372 19.8440194922256  L 1.04403572868185 15.8345206846107  C 0.480170046542553 15.5005624229735  0.0294817008809839 14.8326459192303  0.0294816811419547 14.1647294154871  L 0.0294816811419547 6.37370328457673  C 0.0294816811419547 5.81777277689996  0.480170026803524 5.59380076523589  1.04403572868185 5.81777277689996  L 7.58609030086436 9.8232720923283  C 8.14793496301529 10.1572303539655  8.60064432866523 10.9371328537751  8.71382168488198 11.4930633614519  L 8.71382168488198 19.2860892384555  Z M 18.9765813788231 14.1647294154871  C 18.9765813788231 14.8326459192303  18.5238720131732 15.5005624425047  17.9620273510223 15.8345206846107  L 11.306795422623 19.8440194922256  C 10.7429297404837 20.1779777538628  10.2922413948221 19.956005488292  10.2922413948221 19.2880889845488  L 10.2922413948221 11.4930633614519  C 10.4054187312999 10.9371328537751  10.8540860569731 10.1572303344343  11.4199727788398 9.8232720923283  L 17.9620273510223 5.81777277689996  C 18.5238720131732 5.5958005308604  18.9765813788231 5.81777277689996  18.9765813788231 6.37370328457673  L 18.9765813788231 14.1647294154871  Z M 16.8322749470163 4.25796775774952  C 17.3961406291556 4.59192601938674  17.3961406291556 5.03787027709036  16.8322749470163 5.37182851919633  L 10.4054187312999 8.6014248270016  C 9.84155304916057 8.8213973269479  9.0513326743268 8.8213973269479  8.48948801217587 8.4894388309352  L 2.05858975648271 4.48193976941359  C 1.49674509433178 4.14798150777637  1.49674509433178 3.70203725007275  2.05858975648271 3.36807898843553  L 8.14793496301529 0.250468696227913  C 8.71180064515459 -0.0834895654093043  9.61519835646609 -0.0834895654093043  10.0658867021277 0.250468696227913  L 16.8322749470163 4.25796775774952  Z " fill-rule="nonzero" fill="#ffffff" stroke="none" />
  </g>
</svg>