<?xml version="1.0" encoding="utf-8"?>
<svg version="1.1" xmlns:xlink="http://www.w3.org/1999/xlink" width="21px" height="20px" xmlns="http://www.w3.org/2000/svg">
  <g>
    <path d="M 8.22135416666667 8.41964285714286  C 8.22135416666667 8.91294642857143  7.8134765625 9.3125  7.30989583333333 9.3125  L 1.22591145833333 9.3125  C 0.722330729166667 9.3125  0.314453125 8.91294642857143  0.314453125 8.41964285714286  L 0.314453125 2.45982142857143  C 0.314453125 1.96651785714286  0.722330729166667 1.56696428571429  1.22591145833333 1.56696428571429  L 7.30989583333333 1.56696428571429  C 7.8134765625 1.56696428571429  8.22135416666667 1.96651785714286  8.22135416666667 2.45982142857143  L 8.22135416666667 8.41964285714286  Z M 15.94140625 10.2857142857143  C 15.5859375 10.6339285714286  15.0071614583333 10.6339285714286  14.6516927083333 10.2857142857143  L 10.349609375 6.07142857142857  C 9.994140625 5.72321428571429  9.994140625 5.15848214285714  10.349609375 4.80803571428571  L 14.6516927083333 0.593749999999999  C 15.0071614583333 0.245535714285714  15.5836588541667 0.245535714285714  15.94140625 0.593749999999999  L 20.2434895833333 4.80803571428571  C 20.5989583333333 5.15625  20.5989583333333 5.72098214285714  20.2434895833333 6.07142857142857  L 15.94140625 10.2857142857143  Z M 8.22135416666667 18.8214285714286  C 8.22135416666667 19.3147321428571  7.8134765625 19.7142857142857  7.30989583333333 19.7142857142857  L 1.22591145833333 19.7142857142857  C 0.722330729166667 19.7142857142857  0.314453125 19.3147321428571  0.314453125 18.8214285714286  L 0.314453125 12.8616071428571  C 0.314453125 12.3683035714286  0.722330729166667 11.96875  1.22591145833333 11.96875  L 7.30989583333333 11.96875  C 7.8134765625 11.96875  8.22135416666667 12.3683035714286  8.22135416666667 12.8616071428571  L 8.22135416666667 18.8214285714286  Z M 19.25 18.8214285714286  C 19.25 19.3147321428571  18.8421223958333 19.7142857142857  18.3385416666667 19.7142857142857  L 12.2545572916667 19.7142857142857  C 11.7509765625 19.7142857142857  11.3430989583333 19.3147321428571  11.3430989583333 18.8214285714286  L 11.3430989583333 12.8616071428571  C 11.3430989583333 12.3683035714286  11.7509765625 11.96875  12.2545572916667 11.96875  L 18.3385416666667 11.96875  C 18.8421223958333 11.96875  19.25 12.3683035714286  19.25 12.8616071428571  L 19.25 18.8214285714286  Z " fill-rule="nonzero" fill="#ffffff" stroke="none" />
  </g>
</svg>