<?xml version="1.0" encoding="utf-8"?>
<svg version="1.1" xmlns:xlink="http://www.w3.org/1999/xlink" width="26px" height="24px" xmlns="http://www.w3.org/2000/svg">
  <g transform="matrix(1 0 0 1 327 -77 )">
    <path d="M 10.1788194444444 10.1035714285714  C 10.1788194444444 10.6955357142857  9.673828125 11.175  9.05034722222222 11.175  L 1.51779513888889 11.175  C 0.894314236111111 11.175  0.389322916666667 10.6955357142857  0.389322916666667 10.1035714285714  L 0.389322916666667 2.95178571428571  C 0.389322916666667 2.35982142857143  0.894314236111111 1.88035714285714  1.51779513888889 1.88035714285714  L 9.05034722222222 1.88035714285714  C 9.673828125 1.88035714285714  10.1788194444444 2.35982142857143  10.1788194444444 2.95178571428571  L 10.1788194444444 10.1035714285714  Z M 19.7369791666667 12.3428571428571  C 19.296875 12.7607142857143  18.5802951388889 12.7607142857143  18.1401909722222 12.3428571428571  L 12.8138020833333 7.28571428571428  C 12.3736979166667 6.86785714285714  12.3736979166667 6.19017857142857  12.8138020833333 5.76964285714286  L 18.1401909722222 0.712499999999999  C 18.5802951388889 0.294642857142857  19.2940538194444 0.294642857142857  19.7369791666667 0.712499999999999  L 25.0633680555556 5.76964285714286  C 25.5034722222222 6.1875  25.5034722222222 6.86517857142857  25.0633680555556 7.28571428571428  L 19.7369791666667 12.3428571428571  Z M 10.1788194444444 22.5857142857143  C 10.1788194444444 23.1776785714286  9.673828125 23.6571428571429  9.05034722222222 23.6571428571429  L 1.51779513888889 23.6571428571429  C 0.894314236111111 23.6571428571429  0.389322916666667 23.1776785714286  0.389322916666667 22.5857142857143  L 0.389322916666667 15.4339285714286  C 0.389322916666667 14.8419642857143  0.894314236111111 14.3625  1.51779513888889 14.3625  L 9.05034722222222 14.3625  C 9.673828125 14.3625  10.1788194444444 14.8419642857143  10.1788194444444 15.4339285714286  L 10.1788194444444 22.5857142857143  Z M 23.8333333333333 22.5857142857143  C 23.8333333333333 23.1776785714286  23.3283420138889 23.6571428571429  22.7048611111111 23.6571428571429  L 15.1723090277778 23.6571428571429  C 14.548828125 23.6571428571429  14.0438368055556 23.1776785714286  14.0438368055556 22.5857142857143  L 14.0438368055556 15.4339285714286  C 14.0438368055556 14.8419642857143  14.548828125 14.3625  15.1723090277778 14.3625  L 22.7048611111111 14.3625  C 23.3283420138889 14.3625  23.8333333333333 14.8419642857143  23.8333333333333 15.4339285714286  L 23.8333333333333 22.5857142857143  Z " fill-rule="nonzero" fill="#47545d" stroke="none" transform="matrix(1 0 0 1 -327 77 )" />
  </g>
</svg>