<?xml version="1.0" encoding="utf-8"?>
<svg version="1.1" xmlns:xlink="http://www.w3.org/1999/xlink" width="20px" height="20px" xmlns="http://www.w3.org/2000/svg">
  <g>
    <path d="M 19.9633597790948 11.8977937544899  C 19.9633597790948 10.5883137571839  18.900609060704 9.52554007273707  17.5911520519037 9.52554007273707  L 16.1678182246767 9.52554007273707  L 16.1678182246767 5.72997552981322  C 16.1678182246767 4.68144504310345  15.3185549344468 3.83218177532328  14.2700244701868 3.83218177532328  L 10.4744369612069 3.83218177532328  L 10.4744369612069 2.40884794809626  C 10.4744369612069 1.09936795079023  9.41168624281609 0.0366172323994254  8.10220624551006 0.0366172323994254  C 6.79272624820403 0.0366172323994254  5.72997552981322 1.09936795079023  5.72997552981322 2.40884794809626  L 5.72997552981322 3.83218177532328  L 1.93441098688937 3.83218177532328  C 0.885880500179598 3.83218177532328  0.0461050422054599 4.68144506555316  0.0461050422054599 5.72997552981322  L 0.0413496542744255 9.33576068606322  L 1.45995105962644 9.33576068606322  C 2.87379707704741 9.33576068606322  4.02196113954741 10.4839247485632  4.02196113954741 11.8977707659842  C 4.02196113954741 13.3116167834052  2.87379707704741 14.4597808459052  1.45995105962644 14.4597808459052  L 0.0413726427801723 14.4597808683549  L 0.0366172548491379 18.0655660246049  C 0.0366172548491379 19.1140965113147  0.885880545079023 19.9633597790948  1.93441100933908 19.9633597790948  L 5.54019616558908 19.9633597790948  L 5.54019616558908 18.5400259518678  C 5.54019616558908 17.1261799344468  6.68836022808908 15.9780158719468  8.10220624551006 15.9780158719468  C 9.51605226293103 15.9780158719468  10.664216325431 17.1261799344468  10.664216325431 18.5400259518678  L 10.664216325431 19.9633597790948  L 14.270001481681 19.9633597790948  C 15.3185319683908 19.9633597790948  16.167795236171 19.1140964888649  16.167795236171 18.0655660246049  L 16.167795236171 14.2700244701868  L 17.591129063398 14.2700244701868  C 18.900609060704 14.2700244701868  19.9633597790948 13.207273751796  19.9633597790948 11.8977937544899  Z " fill-rule="nonzero" fill="#46535d" stroke="none" />
  </g>
</svg>