<?xml version="1.0" encoding="utf-8"?>
<svg version="1.1" xmlns:xlink="http://www.w3.org/1999/xlink" width="19px" height="20px" xmlns="http://www.w3.org/2000/svg">
  <g>
    <path d="M 19 17.5  C 19 18.880711874577  17.9366762808481 20  16.625 20  L 2.375 20  C 1.06332371915187 20  0 18.880711874577  0 17.5  L 0 2.5  C 0 1.11928812542302  1.06332371915187 0  2.375 0  L 16.625 0  C 17.9366762808481 0  19 1.11928812542302  19 2.5  L 19 17.5  Z M 5.9375 16.25  L 5.9375 7.5  C 5.9375 6.80964406271151  5.40583814042407 6.25  4.75 6.25  C 4.09416185957593 6.25  3.5625 6.80964406271151  3.5625 7.5  L 3.5625 16.25  L 5.9375 16.25  Z M 10.6875 16.25  L 10.6875 11.25  C 10.6875 10.5596440627115  10.1558381404241 10  9.5 10  C 8.84416185957593 10  8.3125 10.5596440627115  8.3125 11.25  L 8.3125 16.25  L 10.6875 16.25  Z M 15.4375 16.25  L 15.4375 5  C 15.4375 4.30964406271151  14.9058381404241 3.75  14.25 3.75  C 13.5941618595759 3.75  13.0625 4.30964406271151  13.0625 5  C 13.0625 5  13.0625 5  13 5  L 13 16.25  L 15.4375 16.25  Z " fill-rule="nonzero" fill="#ffffff" stroke="none" />
  </g>
</svg>