<?xml version="1.0" encoding="utf-8"?>
<svg version="1.1" xmlns:xlink="http://www.w3.org/1999/xlink" width="15px" height="15px" xmlns="http://www.w3.org/2000/svg">
  <g transform="matrix(1 0 0 1 36 -38 )">
    <path d="M 13.2589285714286 14.7105535985274  L 10.248325224047 11.6762382388546  C 9.18429851065114 12.4652644356303  7.87093712547539 12.9318070902653  6.45127119140625 12.9318070902653  C 2.91010896344866 12.9318070902653  0.0317796595982125 10.0327704024281  0.0317796595982125 6.46613218721897  C 0.0317796595982125 2.90178026641187  2.91010896344866 0.00274355749775191  6.45127119140625 0.00274355749775191  C 9.99243341936384 0.00274355749775191  12.8707627232143 2.90178026641187  12.8707627232143 6.46613216614209  C 12.8698525931005 7.89614397623869  12.406605127957 9.21883633060942  11.6238152455568 10.2903870250887  L 14.6345338936942 13.3227655196156  C 15.0136198451451 13.7045787081272  15.0136198451451 14.324167779058  14.6345338936942 14.7082672830486  C 14.4438559361049 14.9003170245054  14.1964285714286 14.9963419163107  13.9467312430246 14.9963419163107  C 13.6970339146205 14.9963419163107  13.4496065499442 14.9003170455823  13.2589285714286 14.7105535985274  Z M 1.61168280552455 6.46841850269784  C 1.61168280552455 9.15482869407599  3.78177965959821 11.3428240712118  6.45127119140625 11.3428240712118  C 9.12076272321429 11.3428240712118  11.2908595772879 9.15711500955486  11.2908595772879 6.46841850269784  C 11.2885895926339 3.77972197476394  9.11849273856026 1.5940129341839  6.45127119140625 1.5940129341839  C 3.78404964425223 1.5940129341839  1.61168280552455 3.77972199584083  1.61168280552455 6.46841850269784  Z " fill-rule="nonzero" fill="#8a8a8a" stroke="none" transform="matrix(1 0 0 1 -36 38 )" />
  </g>
</svg>