<?xml version="1.0" encoding="utf-8"?>
<svg version="1.1" xmlns:xlink="http://www.w3.org/1999/xlink" width="52px" height="37px" xmlns="http://www.w3.org/2000/svg">
  <g transform="matrix(1 0 0 1 -120 -69 )">
    <path d="M 0 37  L 0 7  L 2 7  L 2 37  L 0 37  Z M 50 37  L 50 7  L 52 7  L 52 37  L 50 37  Z M 2 37  L 2 35  L 50 35  L 50 37  L 2 37  Z M 38 35  L 38 7  L 40 7  L 40 35  L 38 35  Z M 25 35  L 25 7  L 27 7  L 27 35  L 25 35  Z M 13 35  L 13 7  L 15 7  L 15 35  L 13 35  Z M 2 15  L 2 13  L 50 13  L 50 15  L 2 15  Z M 2 22  L 2 20  L 50 20  L 50 22  L 2 22  Z M 2 30  L 2 28  L 50 28  L 50 30  L 2 30  Z M 0 7  L 0 0  L 52 0  L 52 7  L 0 7  Z " fill-rule="nonzero" fill="#e3e2e8" stroke="none" transform="matrix(1 0 0 1 120 69 )" />
  </g>
</svg>