<?xml version="1.0" encoding="utf-8"?>
<svg version="1.1" xmlns:xlink="http://www.w3.org/1999/xlink" width="50px" height="37px" xmlns="http://www.w3.org/2000/svg">
  <g transform="matrix(1 0 0 1 -347 -69 )">
    <path d="M 0 35  L 0 2  L 12 2  L 12 35  L 0 35  Z M 0 2  L 0 0  L 50 0  L 50 2  L 0 2  Z M 48 37  L 48 0  L 50 0  L 50 37  L 48 37  Z M 12 11  L 12 9  L 48 9  L 48 11  L 12 11  Z M 12 20  L 12 18  L 48 18  L 48 20  L 12 20  Z M 12 28  L 12 26  L 48 26  L 48 28  L 12 28  Z M 0 37  L 0 35  L 50 35  L 50 37  L 0 37  Z " fill-rule="nonzero" fill="#e3e2e8" stroke="none" transform="matrix(1 0 0 1 347 69 )" />
  </g>
</svg>