<?xml version="1.0" encoding="utf-8"?>
<svg version="1.1" xmlns:xlink="http://www.w3.org/1999/xlink" width="18px" height="16px" xmlns="http://www.w3.org/2000/svg">
  <g transform="matrix(1 0 0 1 -1314 -18 )">
    <path d="M 17.9488636363636 3.375  C 17.9488636363636 1.5  16.4147727272727 0  14.4971590909091 0  L 3.50284090909091 0  C 1.58522727272727 0  0.0511363636363636 1.5  0.0511363636363636 3.375  L 0.0511363636363636 12.625  C 0.0511363636363636 14.5  1.58522727272727 16  3.50284090909091 16  L 14.4971590909091 16  C 16.4147727272727 16  17.9488636363636 14.5  17.9488636363636 12.625  L 17.9488636363636 3.375  Z M 1.32954545454545 3.375  C 1.32954545454545 2.25  2.35227272727273 1.25  3.50284090909091 1.25  L 14.4971590909091 1.25  C 15.6477272727273 1.25  16.6704545454545 2.25  16.6704545454545 3.375  L 16.6704545454545 4.5  L 1.32954545454545 4.5  L 1.32954545454545 3.375  Z M 16.6704545454545 12.625  C 16.6704545454545 13.75  15.6477272727273 14.75  14.4971590909091 14.75  L 3.50284090909091 14.75  C 2.35227272727273 14.75  1.32954545454545 13.75  1.32954545454545 12.625  L 1.32954545454545 6  L 16.6704545454545 6  L 16.6704545454545 12.625  Z M 9.63920454545455 8.875  C 9.63920454545455 8.5  9.38352272727273 8.25  9 8.25  L 3.50284090909091 8.25  C 3.11931818181818 8.25  2.86363636363636 8.5  2.86363636363636 8.875  C 2.86363636363636 9.25  3.11931818181818 9.5  3.50284090909091 9.5  L 9 9.5  C 9.38352272727273 9.5  9.63920454545455 9.25  9.63920454545455 8.875  Z M 7.08238636363636 11.875  C 7.08238636363636 11.5  6.69886363636364 11.25  6.31534090909091 11.25  L 3.50284090909091 11.25  C 3.11931818181818 11.25  2.86363636363636 11.5  2.86363636363636 11.875  C 2.86363636363636 12.25  3.11931818181818 12.5  3.50284090909091 12.5  L 6.44318181818182 12.5  C 6.82670454545455 12.5  7.08238636363636 12.25  7.08238636363636 11.875  Z M 2.86363636363636 3.125  C 2.86363636363636 3.53921356237309  3.20705431120932 3.875  3.63068181818182 3.875  C 4.05430932515429 3.875  4.39772727272727 3.53921356237309  4.39772727272727 3.125  C 4.39772727272727 2.71078643762691  4.05430932515429 2.375  3.63068181818182 2.375  C 3.20705431120932 2.375  2.86363636363636 2.7107864376269  2.86363636363636 3.125  Z M 5.16477272727273 3.125  C 5.16477272727273 3.53921356237309  5.50819067484569 3.875  5.93181818181818 3.875  C 6.35544568879068 3.875  6.69886363636364 3.53921356237309  6.69886363636364 3.125  C 6.69886363636364 2.71078643762691  6.35544568879068 2.375  5.93181818181818 2.375  C 5.50819067484569 2.375  5.16477272727273 2.71078643762691  5.16477272727273 3.125  Z M 7.33806818181818 3.125  C 7.33806818181818 3.53921356237309  7.68148612939116 3.875  8.10511363636364 3.875  C 8.52874114333613 3.875  8.87215909090909 3.53921356237309  8.87215909090909 3.125  C 8.87215909090909 2.71078643762691  8.52874114333613 2.375  8.10511363636364 2.375  C 7.68148612939116 2.375  7.33806818181818 2.71078643762691  7.33806818181818 3.125  Z " fill-rule="nonzero" fill="#636776" stroke="none" transform="matrix(1 0 0 1 1314 18 )" />
  </g>
</svg>