<?xml version="1.0" encoding="utf-8"?>
<svg version="1.1" xmlns:xlink="http://www.w3.org/1999/xlink" width="41px" height="38px" xmlns="http://www.w3.org/2000/svg">
  <g transform="matrix(1 0 0 1 -183 -407 )">
    <path d="M 37 19.1027027027027  L 41 19.1027027027027  L 41 0  L 0 0  L 0 38  L 21.73 38  L 21.73 34  L 4 34  L 4 4  L 37 4  L 37 19.1027027027027  Z M 11.5007352956918 11.1340145673349  C 11.5006937782587 11.1368580562428  11.5005364702701 11.1396965103554  11.5003190094501 11.1423354081369  C 11.4994999500745 11.1582161536089  11.4984268518461 11.1741147268011  11.49517 11.1899586077784  C 11.49517 11.2170846261459  11.4954507516003 11.2441449417872  11.4960095021305 11.2711367965591  C 11.4958414270112 11.2798483291697  11.4956982349639 11.2885685173103  11.49558 11.2972972972973  C 11.5524137999457 13.368037167396  13.2466442308527 15.0293964456163  15.32703 15.0293964456163  C 17.4433078414866 15.0293964456163  19.15889 13.3104215735396  19.15889 11.1899586077784  C 19.15889 11.1712365188398  19.1587533296775 11.1525146803138  19.15848 11.1337945945946  C 19.1278424340813 9.03545728447751  17.4214499529045 7.35052076994061  15.32703 7.35052076994061  C 13.2833270280992 7.35052076994061  11.6090866660703 8.95484285403735  11.5007352956918 11.1340145673349  Z M 24.5204594702873 25.3388086815689  C 24.5215529805368 25.3388086815689  24.5226464906682 25.3388093913164  24.52374 25.2648648648649  L 28.29 25.2648648648649  L 28.29 21.5388108108108  C 28.3274370275805 20.138534540646  29.4607255803557 19.0041069096342  30.8582388062133 19.0041069096342  L 31.8283 19.0041081081081  L 27.68156 12.6694054054054  L 19.01252 23.7596540540541  L 15.93342 19.2571675675676  L 8.04666 29  L 21.9883 29  L 21.9883 27.8743351351351  C 21.9892041596592 26.4737373248072  23.1226257053245 25.3388086815689  24.5204594702873 25.3388086815689  Z M 41 28.9621621621622  L 35.875 28.9621621621622  L 35.875 24.0735135135135  L 35.93076 24.0324324324324  L 31.98 24.0324324324324  L 31.98 28.9621621621622  L 27.06 28.9621621621622  L 27.06 32.8648648648649  L 31.98 32.8648648648649  L 31.98 38  L 35.875 38  L 35.875 32.8648648648649  L 41 32.8648648648649  L 41 28.9621621621622  Z M 11.5007352956918 11.1340145673349  C 11.5005974277332 11.136787379108  11.5004620950133 11.1395611215863  11.5003190094578 11.1423354080438  C 11.4991048188102 11.1570696714717  11.4960153410314 11.165582687558  11.5007352956918 11.1340145673349  Z " fill-rule="nonzero" fill="#c6c6c6" stroke="none" transform="matrix(1 0 0 1 183 407 )" />
  </g>
</svg>