<?xml version="1.0" encoding="utf-8"?>
<svg version="1.1" xmlns:xlink="http://www.w3.org/1999/xlink" width="13px" height="13px" xmlns="http://www.w3.org/2000/svg">
  <g transform="matrix(1 0 0 1 -1262 -70 )">
    <path d="M 12.9198461873854 11.9598197209748  C 12.9198461873854 11.6833204408689  12.8001636637531 11.4203563099053  12.5916666611327 11.23875  L 10.4170833388672 9.06416666113281  C 11.0942325588973 8.10711040145686  11.457866432068 6.96358526656892  11.457866432068 5.79119977093513  C 11.457866432068 2.6615861916169  8.9208133502533 0.12453310980232  5.79119977093519 0.12453310980232  C 2.66158619161688 0.12453310980232  0.124533109802375 2.6615861916169  0.124533109802375 5.79119977093513  C 0.124533109802375 8.92081335025337  2.66158619161688 11.4578664320679  5.79119977093519 11.4578664320679  C 6.96358526656895 11.4578664320679  8.10711040145678 11.0942325588974  9.06416666113284 10.4170833388672  L 11.2458333388672 12.5916666611328  C 11.4273743537085 12.7978928650657  11.6888483261412 12.9160697209748  11.9635961873853 12.9160697209748  C 12.4917184794111 12.9160697209748  12.9198461873854 12.4879420130005  12.9198461873854 11.9598197209748  Z M 10.0416666611328 5.79166666113281  C 10.0416666611328 8.13887684791369  8.13887684791372 10.0416666611328  5.79166666113277 10.0416666611328  C 3.44445647435202 10.0416666611328  1.54166666113274 8.13887684791369  1.54166666113274 5.79166666113281  C 1.54166666113274 3.44445647435194  3.44445647435202 1.54166666113281  5.79166666113277 1.54166666113281  C 8.13887684791372 1.54166666113281  10.0416666611328 3.44445647435194  10.0416666611328 5.79166666113281  Z " fill-rule="nonzero" fill="#ffffff" stroke="none" transform="matrix(1 0 0 1 1262 70 )" />
  </g>
</svg>