<?xml version="1.0" encoding="utf-8"?>
<svg version="1.1" xmlns:xlink="http://www.w3.org/1999/xlink" width="12px" height="12px" xmlns="http://www.w3.org/2000/svg">
  <g transform="matrix(1 0 0 1 -296 -339 )">
    <path d="M 0.85725 4.2855  L 0.85725 11  L 11.14275 11  L 11.14275 1.7145  L 9.42825 1.7145  L 9.42825 2.57175  L 8.5725 2.57175  L 8.5725 1.7145  L 3.4275 1.7145  L 3.4275 2.57175  L 2.5725 2.57175  L 2.5725 1.7145  L 0.85725 1.7145  L 0.85725 3.4275  L 11.14275 3.4275  L 11.14275 4.28475  L 0.85725 4.28475  Z M 3.4275 0  L 3.4275 0.85725  L 8.571 0.85725  L 8.571 0  L 9.4275 0  L 9.4275 0.85725  L 12 0.85725  L 12 12  L 0 12  L 0 0.85725  L 2.57175 0.85725  L 2.57175 0  L 3.4275 0  Z M 2.5725 6.85725  L 2.5725 6  L 4.28625 6  L 4.28625 6.85725  L 2.5725 6.85725  Z M 2.5725 8.57175  L 4.28625 8.57175  L 4.28625 9.42825  L 2.5725 9.42825  L 2.5725 8.5725  Z M 5.14275 6.85725  L 5.14275 6  L 6.85725 6  L 6.85725 6.85725  L 5.14275 6.85725  Z M 5.14275 8.57175  L 6.85725 8.57175  L 6.85725 9.42825  L 5.14275 9.42825  L 5.14275 8.5725  Z M 7.7145 6.85725  L 7.7145 6  L 9.42825 6  L 9.42825 6.85725  L 7.7145 6.85725  Z M 7.7145 8.57175  L 9.42825 8.57175  L 9.42825 9.42825  L 7.7145 9.42825  L 7.7145 8.5725  Z " fill-rule="nonzero" fill="#555555" stroke="none" transform="matrix(1 0 0 1 296 339 )" />
  </g>
</svg>