<?xml version="1.0" encoding="utf-8"?>
<svg version="1.1" xmlns:xlink="http://www.w3.org/1999/xlink" width="12px" height="12px" xmlns="http://www.w3.org/2000/svg">
  <g transform="matrix(1 0 0 1 -316 -18 )">
    <path d="M 11.7620048536874 10.8905312982611  L 6.89793618002768 6.02616177620891  L 11.761860446459 1.16180428809242  C 12.0077700618746 0.914014080330734  12.0077700618746 0.51425764593734  11.761860446459 0.266467438175654  L 11.7351812110151 0.239788202731702  C 11.4873065244515 -0.0060530053527993  11.0875746404335 -0.0060530053527993  10.8396999538699 0.239788202731702  L 5.97547483904611 5.11028299805451  L 1.11111735092962 0.237742433662929  C 0.86329472841181 -0.00808848950649608  0.46360312353067 -0.00808848950649608  0.215780501012857 0.237742433662929  L 0.189101265568905 0.264421669106881  C 0.0682325886317695 0.382035497453875  4.8858841963514E-05 0.543520012897865  4.8858841963514E-05 0.712168314647305  C 4.8858841963514E-05 0.880816616396744  0.0682325886317695 1.04230113184073  0.189101265568905 1.15991496018773  L 5.05345875368539 6.02616177620891  L 0.189101265568905 10.8905192643254  C -0.0567376158542544 11.1383433009207  -0.0567376158542531 11.5380441115826  0.189101265568905 11.7858681481779  L 0.215780501012857 11.8125473836218  C 0.463570708774543 12.0584569990374  0.863327143167937 12.0584569990374  1.11111735092962 11.8125473836218  L 5.97547483904611 6.94818989550533  L 10.8398323271626 11.8125473836218  C 11.0876733230374 12.0584817806455  11.4874846223686 12.0584817806455  11.7353256182434 11.8125473836218  L 11.7620048536874 11.7858681481779  C 12.007914469103 11.5380779404162  12.007914469103 11.1383215060228  11.7620048536874 10.8905312982611  Z " fill-rule="nonzero" fill="#555555" stroke="none" transform="matrix(1 0 0 1 316 18 )" />
  </g>
</svg>