<?xml version="1.0" encoding="utf-8"?>
<svg version="1.1" xmlns:xlink="http://www.w3.org/1999/xlink" width="17px" height="16px" xmlns="http://www.w3.org/2000/svg">
  <g transform="matrix(1 0 0 1 -335 -30 )">
    <path d="M 15.328506097561 15.8940397350993  L 15.328506097561 15.887417218543  L 1.71036585365854 15.887417218543  L 1.71036585365854 15.8940397350993  L 0.676371951219512 15.8940397350993  C 0.524442202639673 15.8939282511602  0.378695107731583 15.8325261487346  0.270807926829268 15.723178807947  C 0.16334843806728 15.6147462330403  0.102708168683247 15.4669316013908  0.102362804878049 15.312582781457  L 0.102362804878049 4.84635761589404  C 0.102362804878049 4.69139072847682  0.163262195121952 4.54437086092715  0.270807926829268 4.43576158940397  C 0.378484395203349 4.32592876594661  0.524257296282826 4.26403972201567  0.676371951219512 4.2635761589404  L 2.97370426829268 4.2635761589404  C 3.1266006097561 4.2635761589404  3.27172256097561 4.32582781456954  3.38056402439024 4.43576158940397  C 3.48810975609756 4.54437086092715  3.54900914634146 4.69139072847682  3.54900914634146 4.84635761589404  L 3.54900914634146 5.3112582781457  C 3.54866378253626 5.46560709807957  3.48802351315223 5.61342172972905  3.38056402439024 5.72185430463576  C 3.27235821075939 5.83152487419069  3.12608278103258 5.89295330295064  2.97370426829268 5.89271523178808  L 1.71036585365854 5.89271523178808  L 1.71036585365854 14  L 15.328506097561 14  L 15.328506097561 5.88344370860927  L 14.0768292682927 5.88344370860927  C 13.9244507555528 5.88368177977183  13.778175325826 5.82225335101189  13.6699695121951 5.71258278145696  C 13.5625100234331 5.60415020655024  13.5018697540491 5.45633557490076  13.5015243902439 5.30198675496689  L 13.5015243902439 4.83708609271523  C 13.5015243902439 4.68211920529802  13.5624237804878 4.53509933774835  13.6699695121951 4.42649006622517  C 13.7779641111447 4.31633404423612  13.9242654530062 4.25441845993884  14.0768292682927 4.25430463576159  L 16.3741615853659 4.25430463576159  C 16.525762195122 4.25430463576159  16.6721798780488 4.31655629139073  16.7797256097561 4.42649006622517  C 16.8872713414634 4.53509933774835  16.9481707317073 4.68211920529802  16.9481707317073 4.83708609271523  L 16.9481707317073 5.30066225165563  C 16.9481707317073 5.3430463576159  16.9429878048781 5.38278145695364  16.9365091463415 5.42119205298013  L 16.9365091463415 15.312582781457  C 16.93557597577 15.5897773433651  16.7437650208333 15.8279415886801  16.4778201219512 15.882119205298  L 16.4778201219512 15.887417218543  L 16.4519054878049 15.887417218543  C 16.4218859153729 15.892029532135  16.3915603903711 15.8942437393142  16.3612042682927 15.8940397350993  L 15.328506097561 15.8940397350993  Z M 5.39542682926829 6.90728476821192  L 7.68368902439024 9.22781456953642  L 7.68368902439024 0.582781456953642  C 7.68368902439024 0.262251655629139  7.94153963414634 0.0013245033112582  8.25899390243903 0.0013245033112582  L 8.71768292682927 0.0013245033112582  C 9.03513719512195 0.0013245033112582  9.29298780487805 0.262251655629139  9.29298780487805 0.582781456953642  L 9.29298780487805 9.11258278145696  L 11.5229420731707 6.85298013245033  C 11.7479208292155 6.62397111392842  12.1116828293211 6.62397111392842  12.3366615853659 6.85298013245033  L 12.6605945121951 7.18145695364239  C 12.7683739415771 7.29021202669964  12.8290417444642 7.43856895231066  12.8290417444642 7.59337748344371  C 12.8290417444642 7.74818601457676  12.7683739415771 7.89654294018779  12.6605945121951 8.00529801324504  L 9.00144817073171 11.7086092715232  C 8.68636874716564 12.0274472361658  8.17887515527339 12.0274472361658  7.86379573170732 11.7086092715232  L 4.25647865853658 8.05960264900662  C 4.14877606407515 7.95107527575725  4.08813885372957 7.80293708142543  4.08813885372957 7.64834437086093  C 4.08813885372957 7.49375166029642  4.14877606407515 7.34561346596461  4.25647865853658 7.23708609271523  L 4.58041158536585 6.90728476821192  C 4.80553987231394 6.67739505759269  5.17029854232021 6.6773950575927  5.39542682926829 6.90728476821192  Z " fill-rule="nonzero" fill="#009688" stroke="none" transform="matrix(1 0 0 1 335 30 )" />
  </g>
</svg>