<?xml version="1.0" encoding="utf-8"?>
<svg version="1.1" xmlns:xlink="http://www.w3.org/1999/xlink" width="16px" height="16px" xmlns="http://www.w3.org/2000/svg">
  <g transform="matrix(1 0 0 1 -1422 -13 )">
    <path d="M 8 0  C 12.4182779986463 0  16 3.58172200135365  16 8  C 16 12.4182779986463  12.4182779986463 16  8 16  C 3.58172200135365 16  0 12.4182779986463  0 8  C 0 3.58172200135365  3.58172200135365 0  8 0  Z M 8.00000010217939 1.142857140625  C 4.21290467353546 1.142857140625  1.142857140625 4.21290457135607  1.142857140625 8  C 1.142857140625 11.7870954286439  4.21290457135607 14.857142859375  8 14.857142859375  C 11.7870954286439 14.857142859375  14.8571429615544 11.7870954286439  14.8571429615544 8  C 14.8571429615544 4.21290457135607  11.7870955308233 1.142857140625  8.00000010217939 1.142857140625  Z M 4.57142858658391 8  C 4.57142858658391 7.68440871068407  4.82726587539298 7.428571421875  5.14285716470891 7.428571421875  C 5.14285716470891 7.428571421875  5.142857140625 7.428571421875  5.142857140625 7.44  L 7.44 7.44  L 7.44 5.142857140625  C 7.42857143517618 4.82726586071442  7.68440872008942 4.57142858658391  8 4.57142858658391  C 8.31559128931593 4.57142858658391  8.571428578125 4.82726587539298  8.571428578125 5.14285716470891  C 8.571428578125 5.14285714865297  8.571428578125 5.14285715668094  8.56 5.142857140625  L 8.56 7.44  L 10.857142859375 7.44  C 10.857142859375 7.428571421875  10.857142859375 7.428571421875  10.857142859375 7.428571421875  C 11.1727341486909 7.428571421875  11.4285714375 7.68440871068406  11.4285714375 8  C 11.4285714375 8.31559128931593  11.1727341486909 8.571428578125  10.857142859375 8.571428578125  C 10.857142859375 8.571428578125  10.857142859375 8.571428578125  10.857142859375 8.56  L 8.56 8.56  L 8.56 10.857142859375  C 8.571428578125 10.857142859375  8.571428578125 10.8571428352911  8.571428578125 10.8571428352911  C 8.571428578125 11.172734124607  8.31559128931593 11.4285714134161  8 11.4285714134161  C 7.68440872008942 11.4285714134161  7.42857143517618 11.1727341392856  7.44 10.857142859375  L 7.44 8.56  L 5.142857140625 8.56  C 5.142857140625 8.571428578125  5.14285716470891 8.571428578125  5.14285716470891 8.571428578125  C 4.82726587539298 8.571428578125  4.57142858658391 8.31559128931593  4.57142858658391 8  Z " fill-rule="nonzero" fill="#009688" stroke="none" transform="matrix(1 0 0 1 1422 13 )" />
  </g>
</svg>