<?xml version="1.0" encoding="utf-8"?>
<svg version="1.1" xmlns:xlink="http://www.w3.org/1999/xlink" width="16px" height="16px" xmlns="http://www.w3.org/2000/svg">
  <g transform="matrix(1 0 0 1 -1485 -13 )">
    <path d="M 15.12234375 2.98445595854922  L 11.3062673611111 2.98445595854922  C 11.2543229166667 1.30576424870466  9.83833333333334 0.0182966321243523  8.09704861111111 0.0182966321243523  C 6.35574652777778 0.0182966321243523  4.94248263888889 1.30574805699482  4.88234375 2.98445595854922  L 0.82296875 2.98445595854922  C 0.371944444444445 2.92210168393782  0.00291666666666717 3.26373056994819  0.00291666666666717 3.68693329015544  C 0.00291666666666717 4.1075939119171  0.369218749999999 4.4517810880829  0.82298611111111 4.47668393782383  L 1.77777777777778 4.47668393782383  L 1.77777777777778 13.0077396373057  C 1.72779513888889 14.6138924870466  2.89503472222222 15.9268620466321  4.33838541666667 15.9170984455959  L 11.6916840277778 15.9170984455959  C 13.1323090277778 15.9268620466321  14.3022743055556 14.6215511658031  14.3111111111111 13.0077396373057  L 14.3111111111111 4.45688147668394  L 15.12234375 4.45688147668394  C 15.5733854166667 4.45688147668394  15.9424131944444 4.11523639896373  15.9424131944444 3.69203367875648  C 15.9424131944444 3.27137305699482  15.5761111111111 2.92720207253886  15.12234375 2.98445595854922  Z M 12.7111111111111 13.0153821243523  C 12.7632638888889 13.8898477979275  12.2001388888889 14.504274611399  11.6889583333333 14.5077720207254  L 4.33564236111111 14.5077720207254  L 4.33564236111111 14.4966159326425  C 3.82446180555555 14.4966159326425  3.26133680555556 13.8847474093264  3.28888888888889 13.0077396373057  L 3.28888888888889 4.47668393782383  L 12.7111111111111 4.47668393782383  L 12.7111111111111 13.0153821243523  Z M 6.41862847222222 2.98445595854922  C 6.47876736111111 2.09353950777202  7.20317708333333 1.45108484455959  8.09977430555556 1.45108484455959  C 8.99637152777778 1.45108484455959  9.72078125 2.09608160621762  9.77272569444444 2.98445595854922  L 6.41862847222222 2.98445595854922  Z M 10.5135243055556 6.58821243523316  C 10.1390277777778 6.58821243523316  9.83013888888889 6.9375  9.77777777777778 7.37600388601036  L 9.77777777777778 11.8706930051813  C 9.83013888888889 12.3066386010363  10.1280902777778 12.6584682642487  10.5135243055556 12.6584682642487  C 10.8880208333333 12.6584682642487  11.1969270833333 12.3091968911917  11.2 11.8706930051813  L 11.2 7.37600388601036  C 11.1969270833333 6.9375  10.8907638888889 6.58821243523316  10.5135243055556 6.58821243523316  Z M 7.91116319444445 6.58821243523316  C 7.53666666666667 6.58821243523316  7.22776041666667 6.9375  7.28888888888889 7.37600388601036  L 7.28888888888889 11.8706930051813  C 7.22776041666667 12.3066386010363  7.53666666666667 12.6584682642487  7.91116319444444 12.6584682642487  C 8.28565972222222 12.6584682642487  8.59454861111111 12.3091968911917  8.53333333333333 11.8706930051813  L 8.53333333333333 7.37600388601036  C 8.59454861111111 6.9375  8.28838541666667 6.58821243523316  7.91116319444445 6.58821243523316  Z M 5.43727430555556 6.58821243523316  C 5.06276041666667 6.58821243523316  4.75387152777778 6.9375  4.8 7.37600388601036  L 4.8 11.8706930051813  C 4.75387152777778 12.3066386010363  5.05456597222222 12.6584682642487  5.43727430555556 12.6584682642487  C 5.81175347222222 12.6584682642487  6.12065972222222 12.3091968911917  6.13333333333333 11.8706930051813  L 6.13333333333333 7.37600388601036  C 6.12065972222222 6.9375  5.81449652777778 6.58821243523316  5.43727430555556 6.58821243523316  Z " fill-rule="nonzero" fill="#009688" stroke="none" transform="matrix(1 0 0 1 1485 13 )" />
  </g>
</svg>