<?xml version="1.0" encoding="utf-8"?>
<svg version="1.1" xmlns:xlink="http://www.w3.org/1999/xlink" width="16px" height="16px" xmlns="http://www.w3.org/2000/svg">
  <g transform="matrix(1 0 0 1 -1453 -13 )">
    <path d="M 0.0320118159203979 15.085280078125  L 1.37756518967662 10.203999203125  L 11.1380588308458 0.40234371875  C 11.6742683613184 -0.136484359375  12.3641936878109 -0.131718734375  12.895645755597 0.40237496875  L 15.5321194340796 3.049937265625  C 16.0635404073383 3.58404659375  16.0682978700249 4.276187171875  15.5321194340796 4.814968375  L 5.77164134017413 14.616623859375  L 0.910836365049751 15.96778  C 0.23659822761194 16.112217484375  -0.111629353233831 15.762780015625  0.0320118159203979 15.085280078125  Z M 4.98631801927861 13.6401551875  L 2.34987543532338 10.992592890625  L 1.35805337375622 14.636186359375  L 4.98631801927861 13.6401551875  Z M 14.2139136971393 4.37365590625  C 14.6695728700249 3.9194684375  14.6418054570896 3.9270309375  14.2139447916667 3.491155984375  L 12.4563112095771 1.726109234375  C 12.039691215796 1.279703015625  11.998040096393 1.275984265625  11.5774866604478 1.726109234375  L 9.81982199937811 3.491140359375  L 12.4563112095771 6.138718265625  L 14.213929244403 4.37365590625  Z M 5.86517367848259 12.75765525  L 11.5774711131841 7.021249453125  L 8.94104407649254 4.37370278125  L 3.2287 10.110077328125  C 3.48420371579602 10.3670148125  4.96293493470149 11.8511240625  5.86517367848259 12.757639625  Z " fill-rule="nonzero" fill="#009688" stroke="none" transform="matrix(1 0 0 1 1453 13 )" />
  </g>
</svg>