<?xml version="1.0" encoding="utf-8"?>
<svg version="1.1" xmlns:xlink="http://www.w3.org/1999/xlink" width="18px" height="14px" xmlns="http://www.w3.org/2000/svg">
  <g>
    <path d="M 0.978016645228075 0.749824652539027  C 0.984017920846534 0.749824652539027  0.990019044921121 0.749883104644519  0.996019108280255 0.75  L 9.52882165605095 0.749999999999999  C 10.016424345831 0.759452482412377  10.4066091759778 1.14523419084761  10.4066091759778 1.61788194444444  C 10.4066091759778 2.09052969804128  10.016424345831 2.47631140647651  9.52882165605096 2.48576388888889  L 0.995839968152866 2.48576388888889  C 0.989899595773279 2.48587846922698  0.983958194032691 2.48593576365014  0.978016645228075 2.48593576365014  C 0.483334843030908 2.48593576365014  0.0823160082854003 2.09729405343381  0.0823160082854003 1.61788020809458  C 0.0823160082854003 1.13846636275535  0.483334843030908 0.749824652539027  0.978016645228075 0.749824652539027  Z M 0.996019108280255 6.13125  L 9.52882165605095 6.13125  C 10.018514838208 6.13796206675613  10.4118554897897 6.52459209228079  10.4118554897897 6.99921875  C 10.4118554897897 7.4738454077192  10.018514838208 7.86047543324386  9.52882165605096 7.8671875  L 0.995839968152866 7.8671875  C 0.991617964319188 7.86724536964697  0.987395591025218 7.86727430555555  0.983173164948932 7.86727430555555  C 0.488491362751765 7.86727430555555  0.087472528006257 7.47863259533923  0.087472528006257 6.99921875  C 0.087472528006257 6.51980490466077  0.488491362751765 6.13116319444444  0.983173164948932 6.13116319444444  C 0.987395591025218 6.13116319444444  0.991617964319188 6.13119213035302  0.995839968152866 6.13125  Z M 0.996019108280255 11.5126736111111  L 9.52882165605095 11.5126736111111  C 10.018514838208 11.5193856778672  10.4118554897897 11.9060157033919  10.4118554897897 12.3806423611111  C 10.4118554897897 12.8552690188303  10.018514838208 13.241899044355  9.52882165605096 13.2486111111111  L 0.995839968152866 13.2486111111111  C 0.501158165955698 13.2486111111111  0.10013933121019 12.8599694008948  0.10013933121019 12.3805555555556  C 0.10013933121019 11.9011417102163  0.501158165955698 11.5125  0.995839968152866 11.5125  Z M 14.4315286624204 2.62951388888889  L 14.4315286624204 13.075  C 14.4315286624204 13.5544138453392  14.0305098276749 13.9430555555556  13.5358280254777 13.9430555555556  C 13.0411462232805 13.9430555555556  12.640127388535 13.5544138453392  12.640127388535 13.075  L 12.640127388535 0.9234375  C 12.640127388535 0.213888888888889  13.4713375796178 -0.195833333333334  14.0632165605096 0.222048611111111  L 17.5062898089172 2.65225694444444  C 17.7443874068824 2.81486923053142  17.8860253978768 3.07953006302429  17.8860253978768 3.36182036309822  C 17.8860253978768 3.84123420843745  17.4850065631313 4.22987591865377  16.9903247609341 4.22987591865377  C 16.7960029450589 4.22987591865377  16.6069516950675 4.16863141419533  16.4516918789809 4.05538194444445  L 14.4315286624204 2.62951388888889  Z " fill-rule="nonzero" fill="#009688" stroke="none" />
  </g>
</svg>