<?xml version="1.0" encoding="utf-8"?>
<svg version="1.1" xmlns:xlink="http://www.w3.org/1999/xlink" width="24px" height="24px" xmlns="http://www.w3.org/2000/svg">
  <g transform="matrix(1 0 0 1 -81 -622 )">
    <path d="M 16.7678571428571 21.1138392857143  C 18.2410714285714 20.3325892857143  19.4508928571429 19.2723214285714  20.3973214285714 17.9330357142857  C 20.2008928571429 16.5491071428571  19.8102678571429 15.3995535714286  19.2254464285714 14.484375  C 18.640625 13.5691964285714  17.8169642857143 13.0401785714286  16.7544642857143 12.8973214285714  C 16.15625 13.5580357142857  15.4441964285714 14.0736607142857  14.6183035714286 14.4441964285714  C 13.7924107142857 14.8147321428571  12.9196428571429 15  12 15  C 11.0803571428571 15  10.2075892857143 14.8147321428571  9.38169642857143 14.4441964285714  C 8.55580357142857 14.0736607142857  7.84375 13.5580357142857  7.24553571428572 12.8973214285714  C 6.18303571428571 13.0401785714286  5.359375 13.5691964285714  4.77455357142857 14.484375  C 4.18973214285714 15.3995535714286  3.79910714285714 16.5491071428571  3.60267857142857 17.9330357142857  C 4.54910714285714 19.2723214285714  5.75892857142857 20.3325892857143  7.23214285714286 21.1138392857143  C 8.70535714285714 21.8950892857143  10.2946428571429 22.2857142857143  12 22.2857142857143  C 13.7053571428571 22.2857142857143  15.2946428571429 21.8950892857143  16.7678571428571 21.1138392857143  Z M 15.6361607142857 12.2075892857143  C 16.640625 11.203125  17.1428571428571 9.99107142857143  17.1428571428571 8.57142857142857  C 17.1428571428571 7.15178571428571  16.640625 5.93973214285714  15.6361607142857 4.93526785714286  C 14.6316964285714 3.93080357142857  13.4196428571429 3.42857142857143  12 3.42857142857143  C 10.5803571428571 3.42857142857143  9.36830357142857 3.93080357142857  8.36383928571428 4.93526785714286  C 7.359375 5.93973214285714  6.85714285714286 7.15178571428571  6.85714285714286 8.57142857142857  C 6.85714285714286 9.99107142857143  7.359375 11.203125  8.36383928571428 12.2075892857143  C 9.36830357142857 13.2120535714286  10.5803571428571 13.7142857142857  12 13.7142857142857  C 13.4196428571429 13.7142857142857  14.6316964285714 13.2120535714286  15.6361607142857 12.2075892857143  Z M 23.0491071428571 7.33928571428571  C 23.6830357142857 8.82142857142857  24 10.375  24 12  C 24 13.625  23.6830357142857 15.1763392857143  23.0491071428571 16.6540178571429  C 22.4151785714286 18.1316964285714  21.5647321428571 19.4084821428571  20.4977678571429 20.484375  C 19.4308035714286 21.5602678571429  18.15625 22.4151785714286  16.6741071428571 23.0491071428571  C 15.1919642857143 23.6830357142857  13.6339285714286 24  12 24  C 10.375 24  8.82142857142857 23.6830357142857  7.33928571428572 23.0491071428571  C 5.85714285714286 22.4151785714286  4.58035714285714 21.5625  3.50892857142857 20.4910714285714  C 2.4375 19.4196428571429  1.58482142857143 18.1428571428571  0.950892857142857 16.6607142857143  C 0.316964285714286 15.1785714285714  0 13.625  0 12  C 0 10.375  0.316964285714286 8.82142857142857  0.950892857142857 7.33928571428571  C 1.58482142857143 5.85714285714286  2.4375 4.58035714285714  3.50892857142857 3.50892857142857  C 4.58035714285714 2.4375  5.85714285714286 1.58482142857143  7.33928571428572 0.950892857142857  C 8.82142857142857 0.316964285714286  10.375 0  12 0  C 13.625 0  15.1785714285714 0.316964285714286  16.6607142857143 0.950892857142857  C 18.1428571428571 1.58482142857143  19.4196428571429 2.4375  20.4910714285714 3.50892857142857  C 21.5625 4.58035714285714  22.4151785714286 5.85714285714286  23.0491071428571 7.33928571428571  Z " fill-rule="nonzero" fill="#d7d7d7" stroke="none" transform="matrix(1 0 0 1 81 622 )" />
  </g>
</svg>