<?xml version="1.0" encoding="utf-8"?>
<svg version="1.1" xmlns:xlink="http://www.w3.org/1999/xlink" width="48px" height="48px" xmlns="http://www.w3.org/2000/svg">
  <g transform="matrix(1 0 0 1 -352 0 )">
    <path d="M 48 48  L 42.78651684375 42.6067415625  L 42.78651684375 37.5730336875  L 48 37.5730336875  L 48 48  Z M 42.6067415625 32.000000015625  L 42.6067415625 26.606741578125  L 48 26.606741578125  L 48 32.000000015625  L 42.6067415625 32.000000015625  Z M 26 22  L 26 0  L 48 0  L 48 22  L 26 22  Z M 29 3  L 29 19  L 45 19  L 45 3  L 29 3  Z M 31 17  L 31 6  L 42 6  L 42 17  L 31 17  Z M 19 18.876404484375  L 19 3  L 2.69662921875 3  L 0 0  L 22 0  L 22 21.573033703125  L 19 18.876404484375  Z M 17 6  L 17 16.179775265625  L 5.3932584375 6  L 17 6  Z M 34.696629234375 26.426966296875  L 34.696629234375 32.000000015625  L 40.089887625 32.000000015625  L 40.089887625 37.39325840625  L 37.5730336875 37.39325840625  L 34.696629234375 34.516853953125  L 26.606741578125 26.426966296875  L 34.696629234375 26.426966296875  Z " fill-rule="nonzero" fill="#333333" stroke="none" transform="matrix(1 0 0 1 352 0 )" />
  </g>
</svg>