<svg t="1654571179080" class="icon" viewBox="0 0 1024 1024" version="1.1" xmlns="http://www.w3.org/2000/svg" p-id="4432" width="20" height="20"><path d="M714.666667 640a21.333333 21.333333 0 0 1 21.333333 21.333333l-0.021333 95.978667L832 757.333333a21.333333 21.333333 0 0 1 21.333333 21.333334v-85.333334 96.149334h-0.021333L853.333333 800a21.333333 21.333333 0 0 1-21.333333 21.333333l-96.021333-0.021333L736 917.333333a21.333333 21.333333 0 0 1-21.333333 21.333334h-21.333334a21.333333 21.333333 0 0 1-21.333333-21.333334l-0.021333-96.021333L576 821.333333a21.333333 21.333333 0 0 1-21.333333-21.333333v-21.333333a21.333333 21.333333 0 0 1 21.333333-21.333334l95.978667-0.021333L672 661.333333a21.333333 21.333333 0 0 1 21.333333-21.333333h21.333334zM689.664 85.333333a42.666667 42.666667 0 0 1 32.042667 14.506667l120.576 137.173333-0.277334 0.192c7.04 7.616 11.328 17.770667 11.328 28.949334V693.333333l-64-0.021333V287.488H234.666667V874.666667h373.333333v64H213.333333a42.666667 42.666667 0 0 1-42.666666-42.666667V266.154667c0-11.264 4.352-21.504 11.477333-29.12v-0.042667l120.96-137.216a42.666667 42.666667 0 0 1 32-14.442667h354.56zM576 576a21.333333 21.333333 0 0 1 21.333333 21.333333v21.333334a21.333333 21.333333 0 0 1-21.333333 21.333333H320a21.333333 21.333333 0 0 1-21.333333-21.333333v-21.333334a21.333333 21.333333 0 0 1 21.333333-21.333333h256z m128-170.666667a21.333333 21.333333 0 0 1 21.333333 21.333334v21.333333a21.333333 21.333333 0 0 1-21.333333 21.333333H320a21.333333 21.333333 0 0 1-21.333333-21.333333v-21.333333a21.333333 21.333333 0 0 1 21.333333-21.333334h384zM678.272 149.333333h-331.733333l-66.496 74.154667h464.469333L678.272 149.333333z" fill="#009688" p-id="4433"></path></svg>