<?xml version="1.0" encoding="utf-8"?>
<svg version="1.1" xmlns:xlink="http://www.w3.org/1999/xlink" width="29px" height="29px" xmlns="http://www.w3.org/2000/svg">
  <defs>
    <mask fill="white" id="clip27">
      <path d="M 28.9858555638634 19.5763910060976  C 28.9858555641854 18.7756002288195  28.3378658536585 18.1276105182927  27.5370750763805 18.1276105182927  L 23.1907336129659 18.1276105182927  L 23.1907336129659 13.781269054878  L 15.9468311736195 13.781269054878  L 15.9468311739415 10.8837080792683  L 20.2931726370341 10.8837080792683  C 21.0939634146341 10.8837080792683  21.741953124839 10.2357183687415  21.741953125161 9.43492759146342  L 21.741953125161 2.19102515243902  C 21.741953125161 1.39023437483902  21.0939634146341 0.742244664634146  20.2931726370341 0.742244664634146  L 8.70292873459512 0.742244664634146  C 7.90213795699512 0.742244664634146  7.25414824679024 1.39023437516098  7.2541482471122 2.19102515243902  L 7.2541482471122 9.43492759146342  C 7.2541482471122 10.2357183690634  7.90213795763903 10.8837080792683  8.70292873491707 10.8837080792683  L 13.0492701980098 10.8837080792683  L 13.0492701983317 13.781269054878  L 5.80536775898537 13.781269054878  L 5.80536775930732 18.1276105182927  L 1.45902629557073 18.1276105182927  C 0.658235517970732 18.1276105182927  0.0102458077658536 18.7756002288195  0.010245808087805 19.5763910060976  L 0.010245808087805 26.820293445122  C 0.010245808087805 27.621084222722  0.658235518614634 28.2690739329268  1.45902629589268 28.2690739329268  L 11.6004897102049 28.2690739329268  C 12.4012804878049 28.2690739329268  13.0492701980098 27.6210842224  13.0492701983317 26.820293445122  L 13.0492701983317 19.5763910060976  C 13.0492701983317 18.7756002284976  12.4012804878049 18.1276105182927  11.6004897105268 18.1276105182927  L 7.25414824679024 18.1276105182927  L 7.25414824679024 15  L 21.741953125161 15  L 21.741953124839 18.1276105182927  L 17.3956116617463 18.1276105182927  C 16.5948208841463 18.1276105182927  15.9468311739415 18.7756002288195  15.9468311736195 19.5763910060976  L 15.9468311736195 26.820293445122  C 15.9468311736195 27.621084222722  16.5948208841463 28.2690739329268  17.3956116614244 28.2690739329268  L 27.5370750763805 28.2690739329268  C 28.3378658539805 28.2690739329268  28.9858555641854 27.6210842224  28.9858555638634 26.820293445122  L 28.9858555638634 19.5763910060976  Z " fill-rule="evenodd" />
    </mask>
  </defs>
  <g transform="matrix(1 0 0 1 -36 -90 )">
    <path d="M 28.9858555638634 19.5763910060976  C 28.9858555641854 18.7756002288195  28.3378658536585 18.1276105182927  27.5370750763805 18.1276105182927  L 23.1907336129659 18.1276105182927  L 23.1907336129659 13.781269054878  L 15.9468311736195 13.781269054878  L 15.9468311739415 10.8837080792683  L 20.2931726370341 10.8837080792683  C 21.0939634146341 10.8837080792683  21.741953124839 10.2357183687415  21.741953125161 9.43492759146342  L 21.741953125161 2.19102515243902  C 21.741953125161 1.39023437483902  21.0939634146341 0.742244664634146  20.2931726370341 0.742244664634146  L 8.70292873459512 0.742244664634146  C 7.90213795699512 0.742244664634146  7.25414824679024 1.39023437516098  7.2541482471122 2.19102515243902  L 7.2541482471122 9.43492759146342  C 7.2541482471122 10.2357183690634  7.90213795763903 10.8837080792683  8.70292873491707 10.8837080792683  L 13.0492701980098 10.8837080792683  L 13.0492701983317 13.781269054878  L 5.80536775898537 13.781269054878  L 5.80536775930732 18.1276105182927  L 1.45902629557073 18.1276105182927  C 0.658235517970732 18.1276105182927  0.0102458077658536 18.7756002288195  0.010245808087805 19.5763910060976  L 0.010245808087805 26.820293445122  C 0.010245808087805 27.621084222722  0.658235518614634 28.2690739329268  1.45902629589268 28.2690739329268  L 11.6004897102049 28.2690739329268  C 12.4012804878049 28.2690739329268  13.0492701980098 27.6210842224  13.0492701983317 26.820293445122  L 13.0492701983317 19.5763910060976  C 13.0492701983317 18.7756002284976  12.4012804878049 18.1276105182927  11.6004897105268 18.1276105182927  L 7.25414824679024 18.1276105182927  L 7.25414824679024 15  L 21.741953125161 15  L 21.741953124839 18.1276105182927  L 17.3956116617463 18.1276105182927  C 16.5948208841463 18.1276105182927  15.9468311739415 18.7756002288195  15.9468311736195 19.5763910060976  L 15.9468311736195 26.820293445122  C 15.9468311736195 27.621084222722  16.5948208841463 28.2690739329268  17.3956116614244 28.2690739329268  L 27.5370750763805 28.2690739329268  C 28.3378658539805 28.2690739329268  28.9858555641854 27.6210842224  28.9858555638634 26.820293445122  L 28.9858555638634 19.5763910060976  Z " fill-rule="nonzero" fill="#999999" stroke="none" transform="matrix(1 0 0 1 36 90 )" />
    <path d="M 28.9858555638634 19.5763910060976  C 28.9858555641854 18.7756002288195  28.3378658536585 18.1276105182927  27.5370750763805 18.1276105182927  L 23.1907336129659 18.1276105182927  L 23.1907336129659 13.781269054878  L 15.9468311736195 13.781269054878  L 15.9468311739415 10.8837080792683  L 20.2931726370341 10.8837080792683  C 21.0939634146341 10.8837080792683  21.741953124839 10.2357183687415  21.741953125161 9.43492759146342  L 21.741953125161 2.19102515243902  C 21.741953125161 1.39023437483902  21.0939634146341 0.742244664634146  20.2931726370341 0.742244664634146  L 8.70292873459512 0.742244664634146  C 7.90213795699512 0.742244664634146  7.25414824679024 1.39023437516098  7.2541482471122 2.19102515243902  L 7.2541482471122 9.43492759146342  C 7.2541482471122 10.2357183690634  7.90213795763903 10.8837080792683  8.70292873491707 10.8837080792683  L 13.0492701980098 10.8837080792683  L 13.0492701983317 13.781269054878  L 5.80536775898537 13.781269054878  L 5.80536775930732 18.1276105182927  L 1.45902629557073 18.1276105182927  C 0.658235517970732 18.1276105182927  0.0102458077658536 18.7756002288195  0.010245808087805 19.5763910060976  L 0.010245808087805 26.820293445122  C 0.010245808087805 27.621084222722  0.658235518614634 28.2690739329268  1.45902629589268 28.2690739329268  L 11.6004897102049 28.2690739329268  C 12.4012804878049 28.2690739329268  13.0492701980098 27.6210842224  13.0492701983317 26.820293445122  L 13.0492701983317 19.5763910060976  C 13.0492701983317 18.7756002284976  12.4012804878049 18.1276105182927  11.6004897105268 18.1276105182927  L 7.25414824679024 18.1276105182927  L 7.25414824679024 15  L 21.741953125161 15  L 21.741953124839 18.1276105182927  L 17.3956116617463 18.1276105182927  C 16.5948208841463 18.1276105182927  15.9468311739415 18.7756002288195  15.9468311736195 19.5763910060976  L 15.9468311736195 26.820293445122  C 15.9468311736195 27.621084222722  16.5948208841463 28.2690739329268  17.3956116614244 28.2690739329268  L 27.5370750763805 28.2690739329268  C 28.3378658539805 28.2690739329268  28.9858555641854 27.6210842224  28.9858555638634 26.820293445122  L 28.9858555638634 19.5763910060976  Z " stroke-width="2" stroke="#797979" fill="none" transform="matrix(1 0 0 1 36 90 )" mask="url(#clip27)" />
  </g>
</svg>