<?xml version="1.0" encoding="utf-8"?>
<svg version="1.1" xmlns:xlink="http://www.w3.org/1999/xlink" width="28px" height="27px" xmlns="http://www.w3.org/2000/svg">
  <defs>
    <mask fill="white" id="clip28">
      <path d="M 21.63715 18.310375  L 21.636425 18.30965  C 25.009125 18.619225  26.804225 21.11105  27.023175 25.78585  C 27.023175 26.2194  26.6991 26.543475  26.298175 26.543475  L 1.701825 26.543475  C 1.269 26.5239  0.960150000000001 26.1846  0.978275 25.78585  C 1.197225 21.11105  2.99305 18.619225  6.365025 18.30965  C 6.365025 18.30965  10.604825 17.032925  11.1754 16.244125  L 11.1754 13.60875  C 11.1754 13.60875  9.924775 12.44005  9.924775 10.592025  C 9.924775 10.592025  9.0555 10.45645  9.0555 8.934675  C 9.0555 8.934675  8.892375 8.173425  9.463675 7.38535  C 9.463675 7.38535  8.756075 3.71685  10.033525 2.54815  C 10.033525 2.54815  11.202225 0.618925  14.00145 0.4558  C 16.800675 0.618925  17.969375 2.54815  17.969375 2.54815  C 19.245375 3.71685  18.539225 7.38535  18.539225 7.38535  C 19.110525 8.173425  18.9474 8.934675  18.9474 8.934675  C 18.9474 10.45645  18.0774 10.592025  18.0774 10.592025  C 18.0774 12.44005  16.8275 13.608025  16.8275 13.608025  L 16.8275 16.244125  C 17.398075 17.032925  21.63715 18.310375  21.63715 18.310375  Z " fill-rule="evenodd" />
    </mask>
  </defs>
  <g transform="matrix(1 0 0 1 -36 -173 )">
    <path d="M 21.63715 18.310375  L 21.636425 18.30965  C 25.009125 18.619225  26.804225 21.11105  27.023175 25.78585  C 27.023175 26.2194  26.6991 26.543475  26.298175 26.543475  L 1.701825 26.543475  C 1.269 26.5239  0.960150000000001 26.1846  0.978275 25.78585  C 1.197225 21.11105  2.99305 18.619225  6.365025 18.30965  C 6.365025 18.30965  10.604825 17.032925  11.1754 16.244125  L 11.1754 13.60875  C 11.1754 13.60875  9.924775 12.44005  9.924775 10.592025  C 9.924775 10.592025  9.0555 10.45645  9.0555 8.934675  C 9.0555 8.934675  8.892375 8.173425  9.463675 7.38535  C 9.463675 7.38535  8.756075 3.71685  10.033525 2.54815  C 10.033525 2.54815  11.202225 0.618925  14.00145 0.4558  C 16.800675 0.618925  17.969375 2.54815  17.969375 2.54815  C 19.245375 3.71685  18.539225 7.38535  18.539225 7.38535  C 19.110525 8.173425  18.9474 8.934675  18.9474 8.934675  C 18.9474 10.45645  18.0774 10.592025  18.0774 10.592025  C 18.0774 12.44005  16.8275 13.608025  16.8275 13.608025  L 16.8275 16.244125  C 17.398075 17.032925  21.63715 18.310375  21.63715 18.310375  Z " fill-rule="nonzero" fill="#ffffff" stroke="none" transform="matrix(1 0 0 1 36 173 )" />
    <path d="M 21.63715 18.310375  L 21.636425 18.30965  C 25.009125 18.619225  26.804225 21.11105  27.023175 25.78585  C 27.023175 26.2194  26.6991 26.543475  26.298175 26.543475  L 1.701825 26.543475  C 1.269 26.5239  0.960150000000001 26.1846  0.978275 25.78585  C 1.197225 21.11105  2.99305 18.619225  6.365025 18.30965  C 6.365025 18.30965  10.604825 17.032925  11.1754 16.244125  L 11.1754 13.60875  C 11.1754 13.60875  9.924775 12.44005  9.924775 10.592025  C 9.924775 10.592025  9.0555 10.45645  9.0555 8.934675  C 9.0555 8.934675  8.892375 8.173425  9.463675 7.38535  C 9.463675 7.38535  8.756075 3.71685  10.033525 2.54815  C 10.033525 2.54815  11.202225 0.618925  14.00145 0.4558  C 16.800675 0.618925  17.969375 2.54815  17.969375 2.54815  C 19.245375 3.71685  18.539225 7.38535  18.539225 7.38535  C 19.110525 8.173425  18.9474 8.934675  18.9474 8.934675  C 18.9474 10.45645  18.0774 10.592025  18.0774 10.592025  C 18.0774 12.44005  16.8275 13.608025  16.8275 13.608025  L 16.8275 16.244125  C 17.398075 17.032925  21.63715 18.310375  21.63715 18.310375  Z " stroke-width="2" stroke="#797979" fill="none" transform="matrix(1 0 0 1 36 173 )" mask="url(#clip28)" />
  </g>
</svg>