<?xml version="1.0" encoding="utf-8"?>
<svg version="1.1" xmlns:xlink="http://www.w3.org/1999/xlink" width="26px" height="12px" xmlns="http://www.w3.org/2000/svg">
  <defs>
    <mask fill="white" id="clip30">
      <path d="M 25.679791015625 10.9390859375  C 25.3546015625 6.497353515625  22.967837890625 2.66740625  19.535703125 0.484929687499999  C 17.72914453125 1.91297265625001  15.479388671875 2.797734375  13.00066796875 2.797734375  C 10.521947265625 2.797734375  8.273638671875 1.9102265625  6.46288671875 0.484929687499999  C 3.034908203125 2.66740625  0.648070312500002 6.50013671875  0.320208984375002 10.9390859375  C 1.520474609375 11.102255859375  3.656341796875 11.2778203125  6.7043203125 11.2778203125  L 19.291486328125 11.2778203125  C 22.340912109375 11.2778203125  24.478078125 11.10229296875  25.679791015625 10.9390859375  Z " fill-rule="evenodd" />
    </mask>
  </defs>
  <g transform="matrix(1 0 0 1 -36 -270 )">
    <path d="M 25.679791015625 10.9390859375  C 25.3546015625 6.497353515625  22.967837890625 2.66740625  19.535703125 0.484929687499999  C 17.72914453125 1.91297265625001  15.479388671875 2.797734375  13.00066796875 2.797734375  C 10.521947265625 2.797734375  8.273638671875 1.9102265625  6.46288671875 0.484929687499999  C 3.034908203125 2.66740625  0.648070312500002 6.50013671875  0.320208984375002 10.9390859375  C 1.520474609375 11.102255859375  3.656341796875 11.2778203125  6.7043203125 11.2778203125  L 19.291486328125 11.2778203125  C 22.340912109375 11.2778203125  24.478078125 11.10229296875  25.679791015625 10.9390859375  Z " fill-rule="nonzero" fill="#ffffff" stroke="none" transform="matrix(1 0 0 1 36 270 )" />
    <path d="M 25.679791015625 10.9390859375  C 25.3546015625 6.497353515625  22.967837890625 2.66740625  19.535703125 0.484929687499999  C 17.72914453125 1.91297265625001  15.479388671875 2.797734375  13.00066796875 2.797734375  C 10.521947265625 2.797734375  8.273638671875 1.9102265625  6.46288671875 0.484929687499999  C 3.034908203125 2.66740625  0.648070312500002 6.50013671875  0.320208984375002 10.9390859375  C 1.520474609375 11.102255859375  3.656341796875 11.2778203125  6.7043203125 11.2778203125  L 19.291486328125 11.2778203125  C 22.340912109375 11.2778203125  24.478078125 11.10229296875  25.679791015625 10.9390859375  Z " stroke-width="2" stroke="#797979" fill="none" transform="matrix(1 0 0 1 36 270 )" mask="url(#clip30)" />
  </g>
</svg>