<?xml version="1.0" encoding="utf-8"?>
<svg version="1.1" xmlns:xlink="http://www.w3.org/1999/xlink" width="18px" height="18px" xmlns="http://www.w3.org/2000/svg">
  <defs>
    <mask fill="white" id="clip29">
      <path d="M 17.480828125 9.20092968749999  C 17.480828125 4.526001953125  13.675595703125 0.722179687499995  9.00066796875 0.722179687500002  C 4.32711328125 0.722179687500002  0.521880859375001 4.526001953125  0.521880859375001 9.2009296875  C 0.521880859375001 13.87307421875  4.3243671875 17.678380859375  9.00066796875 17.678380859375  C 13.675595703125 17.678380859375  17.480828125 13.873111328125  17.480828125 9.20092968749999  Z " fill-rule="evenodd" />
    </mask>
  </defs>
  <g transform="matrix(1 0 0 1 -40 -253 )">
    <path d="M 17.480828125 9.20092968749999  C 17.480828125 4.526001953125  13.675595703125 0.722179687499995  9.00066796875 0.722179687500002  C 4.32711328125 0.722179687500002  0.521880859375001 4.526001953125  0.521880859375001 9.2009296875  C 0.521880859375001 13.87307421875  4.3243671875 17.678380859375  9.00066796875 17.678380859375  C 13.675595703125 17.678380859375  17.480828125 13.873111328125  17.480828125 9.20092968749999  Z " fill-rule="nonzero" fill="#ffffff" stroke="none" transform="matrix(1 0 0 1 40 253 )" />
    <path d="M 17.480828125 9.20092968749999  C 17.480828125 4.526001953125  13.675595703125 0.722179687499995  9.00066796875 0.722179687500002  C 4.32711328125 0.722179687500002  0.521880859375001 4.526001953125  0.521880859375001 9.2009296875  C 0.521880859375001 13.87307421875  4.3243671875 17.678380859375  9.00066796875 17.678380859375  C 13.675595703125 17.678380859375  17.480828125 13.873111328125  17.480828125 9.20092968749999  Z " stroke-width="2" stroke="#797979" fill="none" transform="matrix(1 0 0 1 40 253 )" mask="url(#clip29)" />
  </g>
</svg>