<?xml version="1.0" encoding="utf-8"?>
<svg version="1.1" xmlns:xlink="http://www.w3.org/1999/xlink" width="33px" height="30px" xmlns="http://www.w3.org/2000/svg">
  <defs>
    <mask fill="white" id="clip31">
      <path d="M 21.82125 8.978375  C 21.2492549140498 10.3146992690986  20.2065930881063 11.3945465864497  18.8911249892578 12.0129999892578  C 19.2953749892578 12.2192499892578  19.7106249785156 12.398  20.092875 12.6345000107422  C 21.9711250107422 13.79225  23.1357499892578 15.4890000107422  23.5510000107422 17.723375  C 23.6390000214844 18.2046249892578  23.6706250107422 18.6996249892578  23.673375 19.1891250107422  C 23.6830000107422 22.2636250214844  23.6775 25.3395000107422  23.6775 28.415375  L 23.6775 28.621625  C 18.9346603617942 29.4578848037971  14.082160062785 29.4588154676528  9.339 28.6243749892578  C 9.334875 28.5666249892578  9.33075 28.5294999892578  9.33075 28.4910000107422  C 9.33075 25.3147500107422  9.31287498925781 22.1385000107422  9.339 18.9594999892578  C 9.36375 15.92075  11.182875 13.2367499785156  13.9067500107422 12.1312500107422  C 13.979625 12.1037500214844  14.0511250107422 12.072125  14.1501250107422 12.0294999892578  C 12.6280000107422 11.2787499892578  11.5651249892578 10.1223750107422  10.9999999892578 8.49712501074219  C 10.563502532743 7.25244191849319  10.5379584630921 5.90053388202894  10.927125 4.64025001074219  C 11.6723749892578 2.11299998925781  13.9356250107422 0.388749989257813  16.4972500107422 0.375000010742187  C 19.041 0.36125  21.355125 2.12675  22.0879999892578 4.66087501074219  C 22.51425 6.132125  22.435875 7.57862502148437  21.82125 8.978375  Z M 25.0332499892578 26.2236249892578  L 25.0332499892578 26.2222500107422  L 25.0332499892578 25.961  L 25.0332499892578 19.2510000107422  C 25.0332499892578 17.9887500107422  24.8228749892578 16.7732500214844  24.3430000107422 15.6127500107422  L 24.292125 15.4890000107422  C 24.1078750107422 15.071  24.1037500107422 15.066875  24.432375 14.774  C 24.8008750107422 14.439875  25.2188749892578 14.1827499892578  25.6630000107422 13.9764999892578  C 25.7798750214844 13.92425  25.8995000214844 13.8774999892578  26.057625 13.8114999892578  C 24.9919999892578 13.28075  24.2357500107422 12.48875  23.8163749892578 11.3777499892578  C 23.3958565203831 10.3018437888347  23.405704305898 9.10533878355277  23.8438750107422 8.03649998925781  C 24.5324322484815 6.24889544793272  26.3326974573288 5.14372637502077  28.2383749892578 5.33874998925781  C 30.0533749892578 5.53124997851562  31.5823749785156 6.97499997851563  31.948125 8.86837501074219  C 32.327625 10.8208750214844  31.4256250107422 12.855875  29.5006249892578 13.804625  L 29.6903749892578 13.89125  C 31.5796249892578 14.7437499892578  32.6878749785156 16.2191250107422  32.962875 18.350375  C 32.9903749892578 18.5799999892578  32.9972500107422 18.8096250107422  32.9986249892578 19.03925  L 32.9986249892578 25.895  C 30.3703885322985 26.3625119939865  27.6910649752646 26.4730520093842  25.0332499892578 26.2236249892578  Z M 3.50074998925781 13.8114999892578  L 3.498 13.812875  C 1.14949998925781 12.6606249892578  0.63525 10.0811250107422  1.18249998925781 8.38575001074219  C 1.79025 6.49650001074219  3.44712498925781 5.29612501074219  5.27175 5.31675001074219  C 7.338375 5.34150001074219  8.91 6.81550002148437  9.36100001074219 8.636  C 9.85600001074219 10.6215000107422  8.98562501074219 12.8283750107422  6.96850001074219 13.80875  C 7.05100001074219 13.8472500107422  7.11287501074219 13.8774999892578  7.17887501074219 13.9050000107422  C 7.77287501074219 14.1497500214844  8.30225002148437 14.50175  8.77662498925781 14.94725  C 8.87149998925781 15.0366249892578  8.90449998925781 15.1026249892578  8.84125001074219 15.2346249892578  C 8.24037502148437 16.4927499892578  7.97912501074219 17.8333749892578  7.98049998925781 19.233125  L 7.98049998925781 26.220875  C 5.300625 26.4738750107422  2.6565 26.3583750107422  0.00962501074218641 25.8922500107422  L 0.00962501074218641 25.6942500107422  C 0.00962501074218641 23.4681250214844  -0.0123750000000011 21.2433750107422  0.0151249892578114 19.0200000107422  C 0.0453749999999989 16.6935000107422  1.09725 15.0187500107422  3.102 13.99025  C 3.22575 13.92425  3.35775 13.8761250107422  3.50074998925781 13.8114999892578  Z " fill-rule="evenodd" />
    </mask>
  </defs>
  <g transform="matrix(1 0 0 1 -34 -340 )">
    <path d="M 21.82125 8.978375  C 21.2492549140498 10.3146992690986  20.2065930881063 11.3945465864497  18.8911249892578 12.0129999892578  C 19.2953749892578 12.2192499892578  19.7106249785156 12.398  20.092875 12.6345000107422  C 21.9711250107422 13.79225  23.1357499892578 15.4890000107422  23.5510000107422 17.723375  C 23.6390000214844 18.2046249892578  23.6706250107422 18.6996249892578  23.673375 19.1891250107422  C 23.6830000107422 22.2636250214844  23.6775 25.3395000107422  23.6775 28.415375  L 23.6775 28.621625  C 18.9346603617942 29.4578848037971  14.082160062785 29.4588154676528  9.339 28.6243749892578  C 9.334875 28.5666249892578  9.33075 28.5294999892578  9.33075 28.4910000107422  C 9.33075 25.3147500107422  9.31287498925781 22.1385000107422  9.339 18.9594999892578  C 9.36375 15.92075  11.182875 13.2367499785156  13.9067500107422 12.1312500107422  C 13.979625 12.1037500214844  14.0511250107422 12.072125  14.1501250107422 12.0294999892578  C 12.6280000107422 11.2787499892578  11.5651249892578 10.1223750107422  10.9999999892578 8.49712501074219  C 10.563502532743 7.25244191849319  10.5379584630921 5.90053388202894  10.927125 4.64025001074219  C 11.6723749892578 2.11299998925781  13.9356250107422 0.388749989257813  16.4972500107422 0.375000010742187  C 19.041 0.36125  21.355125 2.12675  22.0879999892578 4.66087501074219  C 22.51425 6.132125  22.435875 7.57862502148437  21.82125 8.978375  Z M 25.0332499892578 26.2236249892578  L 25.0332499892578 26.2222500107422  L 25.0332499892578 25.961  L 25.0332499892578 19.2510000107422  C 25.0332499892578 17.9887500107422  24.8228749892578 16.7732500214844  24.3430000107422 15.6127500107422  L 24.292125 15.4890000107422  C 24.1078750107422 15.071  24.1037500107422 15.066875  24.432375 14.774  C 24.8008750107422 14.439875  25.2188749892578 14.1827499892578  25.6630000107422 13.9764999892578  C 25.7798750214844 13.92425  25.8995000214844 13.8774999892578  26.057625 13.8114999892578  C 24.9919999892578 13.28075  24.2357500107422 12.48875  23.8163749892578 11.3777499892578  C 23.3958565203831 10.3018437888347  23.405704305898 9.10533878355277  23.8438750107422 8.03649998925781  C 24.5324322484815 6.24889544793272  26.3326974573288 5.14372637502077  28.2383749892578 5.33874998925781  C 30.0533749892578 5.53124997851562  31.5823749785156 6.97499997851563  31.948125 8.86837501074219  C 32.327625 10.8208750214844  31.4256250107422 12.855875  29.5006249892578 13.804625  L 29.6903749892578 13.89125  C 31.5796249892578 14.7437499892578  32.6878749785156 16.2191250107422  32.962875 18.350375  C 32.9903749892578 18.5799999892578  32.9972500107422 18.8096250107422  32.9986249892578 19.03925  L 32.9986249892578 25.895  C 30.3703885322985 26.3625119939865  27.6910649752646 26.4730520093842  25.0332499892578 26.2236249892578  Z M 3.50074998925781 13.8114999892578  L 3.498 13.812875  C 1.14949998925781 12.6606249892578  0.63525 10.0811250107422  1.18249998925781 8.38575001074219  C 1.79025 6.49650001074219  3.44712498925781 5.29612501074219  5.27175 5.31675001074219  C 7.338375 5.34150001074219  8.91 6.81550002148437  9.36100001074219 8.636  C 9.85600001074219 10.6215000107422  8.98562501074219 12.8283750107422  6.96850001074219 13.80875  C 7.05100001074219 13.8472500107422  7.11287501074219 13.8774999892578  7.17887501074219 13.9050000107422  C 7.77287501074219 14.1497500214844  8.30225002148437 14.50175  8.77662498925781 14.94725  C 8.87149998925781 15.0366249892578  8.90449998925781 15.1026249892578  8.84125001074219 15.2346249892578  C 8.24037502148437 16.4927499892578  7.97912501074219 17.8333749892578  7.98049998925781 19.233125  L 7.98049998925781 26.220875  C 5.300625 26.4738750107422  2.6565 26.3583750107422  0.00962501074218641 25.8922500107422  L 0.00962501074218641 25.6942500107422  C 0.00962501074218641 23.4681250214844  -0.0123750000000011 21.2433750107422  0.0151249892578114 19.0200000107422  C 0.0453749999999989 16.6935000107422  1.09725 15.0187500107422  3.102 13.99025  C 3.22575 13.92425  3.35775 13.8761250107422  3.50074998925781 13.8114999892578  Z " fill-rule="nonzero" fill="#ffffff" stroke="none" transform="matrix(1 0 0 1 34 340 )" />
    <path d="M 21.82125 8.978375  C 21.2492549140498 10.3146992690986  20.2065930881063 11.3945465864497  18.8911249892578 12.0129999892578  C 19.2953749892578 12.2192499892578  19.7106249785156 12.398  20.092875 12.6345000107422  C 21.9711250107422 13.79225  23.1357499892578 15.4890000107422  23.5510000107422 17.723375  C 23.6390000214844 18.2046249892578  23.6706250107422 18.6996249892578  23.673375 19.1891250107422  C 23.6830000107422 22.2636250214844  23.6775 25.3395000107422  23.6775 28.415375  L 23.6775 28.621625  C 18.9346603617942 29.4578848037971  14.082160062785 29.4588154676528  9.339 28.6243749892578  C 9.334875 28.5666249892578  9.33075 28.5294999892578  9.33075 28.4910000107422  C 9.33075 25.3147500107422  9.31287498925781 22.1385000107422  9.339 18.9594999892578  C 9.36375 15.92075  11.182875 13.2367499785156  13.9067500107422 12.1312500107422  C 13.979625 12.1037500214844  14.0511250107422 12.072125  14.1501250107422 12.0294999892578  C 12.6280000107422 11.2787499892578  11.5651249892578 10.1223750107422  10.9999999892578 8.49712501074219  C 10.563502532743 7.25244191849319  10.5379584630921 5.90053388202894  10.927125 4.64025001074219  C 11.6723749892578 2.11299998925781  13.9356250107422 0.388749989257813  16.4972500107422 0.375000010742187  C 19.041 0.36125  21.355125 2.12675  22.0879999892578 4.66087501074219  C 22.51425 6.132125  22.435875 7.57862502148437  21.82125 8.978375  Z " stroke-width="2" stroke="#797979" fill="none" transform="matrix(1 0 0 1 34 340 )" mask="url(#clip31)" />
    <path d="M 25.0332499892578 26.2236249892578  L 25.0332499892578 26.2222500107422  L 25.0332499892578 25.961  L 25.0332499892578 19.2510000107422  C 25.0332499892578 17.9887500107422  24.8228749892578 16.7732500214844  24.3430000107422 15.6127500107422  L 24.292125 15.4890000107422  C 24.1078750107422 15.071  24.1037500107422 15.066875  24.432375 14.774  C 24.8008750107422 14.439875  25.2188749892578 14.1827499892578  25.6630000107422 13.9764999892578  C 25.7798750214844 13.92425  25.8995000214844 13.8774999892578  26.057625 13.8114999892578  C 24.9919999892578 13.28075  24.2357500107422 12.48875  23.8163749892578 11.3777499892578  C 23.3958565203831 10.3018437888347  23.405704305898 9.10533878355277  23.8438750107422 8.03649998925781  C 24.5324322484815 6.24889544793272  26.3326974573288 5.14372637502077  28.2383749892578 5.33874998925781  C 30.0533749892578 5.53124997851562  31.5823749785156 6.97499997851563  31.948125 8.86837501074219  C 32.327625 10.8208750214844  31.4256250107422 12.855875  29.5006249892578 13.804625  L 29.6903749892578 13.89125  C 31.5796249892578 14.7437499892578  32.6878749785156 16.2191250107422  32.962875 18.350375  C 32.9903749892578 18.5799999892578  32.9972500107422 18.8096250107422  32.9986249892578 19.03925  L 32.9986249892578 25.895  C 30.3703885322985 26.3625119939865  27.6910649752646 26.4730520093842  25.0332499892578 26.2236249892578  Z " stroke-width="2" stroke="#797979" fill="none" transform="matrix(1 0 0 1 34 340 )" mask="url(#clip31)" />
    <path d="M 3.50074998925781 13.8114999892578  L 3.498 13.812875  C 1.14949998925781 12.6606249892578  0.63525 10.0811250107422  1.18249998925781 8.38575001074219  C 1.79025 6.49650001074219  3.44712498925781 5.29612501074219  5.27175 5.31675001074219  C 7.338375 5.34150001074219  8.91 6.81550002148437  9.36100001074219 8.636  C 9.85600001074219 10.6215000107422  8.98562501074219 12.8283750107422  6.96850001074219 13.80875  C 7.05100001074219 13.8472500107422  7.11287501074219 13.8774999892578  7.17887501074219 13.9050000107422  C 7.77287501074219 14.1497500214844  8.30225002148437 14.50175  8.77662498925781 14.94725  C 8.87149998925781 15.0366249892578  8.90449998925781 15.1026249892578  8.84125001074219 15.2346249892578  C 8.24037502148437 16.4927499892578  7.97912501074219 17.8333749892578  7.98049998925781 19.233125  L 7.98049998925781 26.220875  C 5.300625 26.4738750107422  2.6565 26.3583750107422  0.00962501074218641 25.8922500107422  L 0.00962501074218641 25.6942500107422  C 0.00962501074218641 23.4681250214844  -0.0123750000000011 21.2433750107422  0.0151249892578114 19.0200000107422  C 0.0453749999999989 16.6935000107422  1.09725 15.0187500107422  3.102 13.99025  C 3.22575 13.92425  3.35775 13.8761250107422  3.50074998925781 13.8114999892578  Z " stroke-width="2" stroke="#797979" fill="none" transform="matrix(1 0 0 1 34 340 )" mask="url(#clip31)" />
  </g>
</svg>