<?xml version="1.0" encoding="utf-8"?>
<svg version="1.1" xmlns:xlink="http://www.w3.org/1999/xlink" width="22px" height="22px" xmlns="http://www.w3.org/2000/svg">
  <g transform="matrix(1 0 0 1 -142 -340 )">
    <path d="M 21.397778470092 21.8650306748466  C 21.6743865030675 21.9065231978528  21.8986412001534 21.6822685007669  21.8650306748466 21.4056604677914  L 21.8650306748466 0.533708780674848  C 21.8986675613497 0.257100747699383  21.6744128642638 0.0328460506134985  21.3978048312883 0.134969325153374  L 0.519948236196317 0.134969325153374  C 0.243340203220859 0.0328460506134985  0.0190855061349697 0.257100747699383  0.134969325153374 0.533708780674848  L 0.134969325153374 21.4056604677914  C 0.0190855061349697 21.6822685007669  0.243340203220859 21.9065231978528  0.519948236196317 21.8650306748466  L 21.397778470092 21.8650306748466  Z M 19.679107553681 2  C 19.9557155866564 1.75151696702454  20.1799702837423 1.97577166411043  20 2.25237969708589  L 20 19.6870159125767  L 20.1799966449387 19.6870159125767  C 20.1799966449387 19.9636239455521  19.9557419478528 20.187878642638  19.6791339148773 20  L 2.23861915260736 20  C 1.9620111196319 20.187878642638  1.73775642254601 19.9636239455521  2 19.6870159125767  L 2 2.25237969708589  C 1.73775642254601 1.97577166411043  1.9620111196319 1.75151696702454  2.23861915260736 2  L 19.679107553681 2  Z M 17.8278925421779 8.3680981595092  C 18.0872076303681 8.35481211656442  18.2974645322086 8.14458157592024  18.2208588957055 7.88524012653374  L 18.2208588957055 4.40537768404908  C 18.2974645322086 4.14606259585889  18.0872339915644 3.9358056940184  17.8278925421779 4.04907975460123  L 11.402087327454 4.04907975460123  C 11.1427722392638 3.9358056940184  10.9325153374233 4.14603623466257  10.9325153374233 4.40537768404908  L 10.9325153374233 7.88524012653374  C 10.9325153374233 8.14455521472393  11.1427458780675 8.35481211656442  11.402087327454 8.3680981595092  L 17.8278925421779 8.3680981595092  Z M 17.8278925421779 17.8159509202454  C 18.0872076303681 17.9292513420245  18.2974645322086 17.7190208013804  18.2208588957055 17.4596793519939  L 18.2208588957055 10.2973686733129  C 18.2974645322086 10.0380272239264  18.0872339915644 9.82779668328221  17.8278925421779 9.85276073619632  L 11.402087327454 9.85276073619632  C 11.1427722392638 9.82779668328221  10.9325153374233 10.0380272239264  10.9325153374233 10.2973686733129  L 10.9325153374233 17.4596793519939  C 10.9325153374233 17.7189944401841  11.1427458780675 17.9292513420245  11.402087327454 17.8159509202454  L 17.8278925421779 17.8159509202454  Z M 9.4478527607362 11.5677147239264  L 9.4478527607362 4.4054040452454  C 9.45953077070552 4.14606259585889  9.24930023006135 3.93583205521472  8.98995878067485 3.93583205521472  L 8.98998514187117 4.04907975460123  L 4.03716449386503 4.04907975460123  C 3.77784940567485 3.93583205521472  3.56759250383436 4.14606259585889  3.6441717791411 4.40540404524539  L 3.6441717791411 11.5677147239264  C 3.56759250383436 11.8270298121166  3.77782304447853 12.0372867139571  4.03716449386503 12.0122699386503  L 8.98995878067485 12.0122699386503  C 9.24927386886503 12.0372867139571  9.45950440950921 11.8270561733129  9.4478527607362 11.5677147239264  Z M 9.4478527607362 17.1927722392638  L 9.4478527607362 13.9798432707055  C 9.45955713190184 13.7205281825153  9.24932659125767 13.5102712806748  8.98998514187117 13.5102712806748  L 4.03716449386503 13.4969325153374  C 3.77784940567485 13.5102449194785  3.56759250383436 13.7204754601227  3.6441717791411 13.9798169095092  L 3.6441717791411 17.4596793519939  C 3.56759250383436 17.7189944401841  3.77782304447853 17.9292513420245  4.03716449386503 17.8159509202454  L 8.72305166794479 17.8159509202454  C 9.12959403757669 17.9292513420245  9.45953077070552 17.5992882476994  9.4478527607362 17.1927722392638  Z " fill-rule="nonzero" fill="#88a5d5" stroke="none" transform="matrix(1 0 0 1 142 340 )" />
  </g>
</svg>