<?xml version="1.0" encoding="utf-8"?>
<svg version="1.1" xmlns:xlink="http://www.w3.org/1999/xlink" width="48px" height="47px" xmlns="http://www.w3.org/2000/svg">
  <g transform="matrix(1 0 0 1 -352 0 )">
    <path d="M 45 3  L 3.98404299684177 3  L 0.972340552701837 0  L 2.92796839948812 0  L 45.5601819659854 0  L 47.4670923443416 0  C 47.6891971628024 0.137558658054679  47.8711032619747 0.328123979359443  47.9999979871887 0.558437457795337  L 48 2.39430590837442  L 48 33.1008307851996  L 47.9999991463104 34.9881979542105  C 47.5883348652493 35.8027886193048  46.635907716334 36.3331112640418  45.5601819610158 36.3331112640418  L 38.3207643352259 36.3331112640418  L 38.3207643352259 39.565391742618  L 31.8856852490004 33  L 45 33  L 45 3  Z M 45.5601819610158 46.8379762608688  L 42.3426424179031 43.6056957822926  L 47.1689517325722 43.6056957822926  C 47.4730527565142 43.6056957822926  47.7574467678199 43.6904580952336  47.9999979871887 43.8377463010239  L 48 46.6059244928595  C 47.7574467678199 46.7532139479277  47.4730527565142 46.8379762608688  47.1689517325722 46.8379762608688  L 45.5601819610158 46.8379762608688  Z M 37.9999984065244 27.4443865065029  L 38.3207643352259 27.0000007070505  L 37.9999984065244 27.0000007032093  L 37.9999984065244 27.4443865065029  Z M 38 27  L 26.2549910485531 27  L 10.1674323716305 11.2830306721675  L 10.1674323716305 8  L 38 8  L 38 27  Z " fill-rule="nonzero" fill="#333333" stroke="none" transform="matrix(1 0 0 1 352 0 )" />
  </g>
</svg>