<?xml version="1.0" encoding="UTF-8"?>
<svg version="1.1" xmlns:xlink="http://www.w3.org/1999/xlink" width="19px" height="22px" xmlns="http://www.w3.org/2000/svg">
  <g transform="matrix(1 0 0 1 -37 -121 )">
    <path d="M 17.402495643028853 0.8823417968750011  L 17.402495643028846 1  L 1.597504356971152 1  C 0.8020017079131576 0.8822947193397304  0.15628704665495757 1.5278607431762614  0.15332309194711374 2.326149088541668  L 0.15332309194711635 19.695574479166666  C 0.15630978588976158 20.493846591105463  0.8020177994172526 21.139387397371966  1.597504356971152 21  L 17.402495643028853 21  C 18.197982200582754 21.139387397371962  18.84369021411024 20.493846591105463  18.846676908052885 19.695574479166662  L 18.846676908052885 2.326149088541668  C 18.84369021411024 1.527876976602868  18.197982200582754 0.8823361703363715  17.402495643028853 0.8823417968750011  Z M 5.156611703725963 4.497342838541666  L 13.81089618389423 4.497342838541669  C 14.208198515067956 4.497342838541669  14.530275691105768 4.820550109934002  14.530275691105768 5.219246484375003  C 14.530275691105768 5.617942858816001  14.208198515067956 5.941150130208334  13.81089618389423 5.941150130208334  L 5.1566117037259644 5.941150130208334  C 4.75930937255224 5.941150130208334  4.437232196514425 5.617942858816001  4.437232196514425 5.219246484375003  C 4.437232196514425 4.820550109934002  4.75930937255224 4.497342838541669  5.1566117037259644 4.497342838541669  Z M 5.156611703725963 7.384957421875  L 13.81089618389423 7.384957421875  C 14.185613168202725 7.417447625919795  14.473305490868196 7.732169680617748  14.473305490868196 8.109602473958335  C 14.473305490868196 8.487035267298918  14.185613168202725 8.801757321996872  13.81089618389423 8.834247526041667  L 5.156611703725963 8.834247526041667  C 5.1357834033212235 8.836060435881365  5.114886690859514 8.8369681640625  5.093980189561915 8.8369681640625  C 4.693683232071516 8.8369681640625  4.369178431749412 8.51132475040593  4.369178431749412 8.109623242187498  C 4.369178431749412 7.707921733969065  4.693683232071516 7.382278320312499  5.093980189561915 7.382278320312499  C 5.114886690859514 7.382278320312499  5.1357834033212235 7.383186048493632  5.156611703725963 7.384998958333331  Z M 8.034171123798078 11.727344921875  L 8.039593374399038 11.727344921875  L 5.156611703725963 11.727344921875  C 5.1357834033212235 11.729157831714698  5.114886690859514 11.73006555989583  5.093980189561915 11.73006555989583  C 4.693683232071516 11.73006555989583  4.369178431749412 11.404422146239263  4.369178431749412 11.002720638020831  C 4.369178431749412 10.6010191298024  4.693683232071516 10.275375716145831  5.093980189561915 10.275375716145831  C 5.114886690859514 10.275375716145831  5.1357834033212235 10.276283444326962  5.156611703725963 10.278096354166664  L 8.034171123798078 10.278096354166664  C 8.408785615114363 10.310703061588985  8.696341367446527 10.625380265979443  8.696341367446527 11.002720638020831  C 8.696341367446527 11.380061010062217  8.408785615114363 11.694738214452675  8.034171123798078 11.727344921875  Z M 16.055666541466348 14.207902213541667  L 14.124641676682696 15.640910026041668  L 14.81161185396634 17.958644401041663  C 14.83579261877762 18.049014527464923  14.803862151106891 18.145142040663114  14.730485051081732 18.202878776041665  C 14.692052217689884 18.228481806548334  14.646763423853624 18.241737989916068  14.600640775240393 18.24088463541667  C 14.556639549783714 18.2390066877676  14.513837404084338 18.225928025295026  14.476260141225964 18.202878776041665  L 12.501981445312506 16.818759375  L 10.511477388822117 18.175755468749994  C 10.49212372733826 18.181991096820596  10.471310467373284 18.181991096820596  10.451956805889424 18.175755468749994  L 10.343801532451923 18.175755468749994  L 10.278900090144232 18.143149348958328  C 10.208398556189893 18.08585401199943  10.178620895282778 17.991962029712496  10.203154146634613 17.904314713541662  L 10.911771935096152 15.619186458333333  L 8.980747070312496 14.159055338541657  C 8.906194560991475 14.104613764992862  8.875518422215688 14.007888790940939  8.90500112680288 13.920220703124997  C 8.934672391966355 13.831093232851979  9.016930870680506 13.770271674851319  9.110549954927883 13.768238802083333  L 11.533757887620192 13.768238802083333  L 11.609503831129807 13.545686458333332  L 12.334264197716347 11.510233854166666  C 12.364395849630597 11.422198480445404  12.447097382913448 11.363233761487518  12.5398544170673 11.363651692708334  C 12.631092007461941 11.367790980110454  12.711474145170055 11.425125097384688  12.745361853966347 11.510233854166666  L 13.448557391826924 13.561968749999997  L 13.524303335336544 13.784521093749992  L 14.703415189302888 13.784521093749992  L 15.936666766826924 13.817085677083329  C 16.028283000220405 13.821358630762752  16.107826863170274 13.881783046286545  16.136793344350963 13.969109114583325  C 16.163359435483002 14.057937450167643  16.13076592364077 14.153891675417462  16.05566654146634 14.207943749999993  Z " fill-rule="nonzero" fill="#06b666" stroke="none" transform="matrix(1 0 0 1 37 121 )"/>
  </g>
</svg>