<?xml version="1.0" encoding="utf-8"?>
<svg version="1.1" xmlns:xlink="http://www.w3.org/1999/xlink" width="16px" height="16px" xmlns="http://www.w3.org/2000/svg">
  <g transform="matrix(1 0 0 1 -1238 -194 )">
    <path d="M 9.7184 14.8576  L 2.7056 14.8576  C 1.85053381548914 14.8571584476492  1.15759979328173 14.1638665050235  1.15759979328173 13.3088002065048  L 1.1576 2.708  C 1.15759944889369 2.70746659811639  1.15759917334048 2.7069331959835  1.15759917334048 2.70639979381519  C 1.15759917334048 1.85133325322023  1.85053357323623 1.15804121021667  2.7056 1.1576  L 13.3056 1.1576  C 13.7168440459931 1.1563955115041  14.1114865380128 1.3197256523619  14.4016 1.6112  C 14.6944 1.904  14.8544 2.2928  14.8544 2.7072  L 14.8304 9.7184  L 14.8304 9.72  C 14.8303994401682 10.0364862721898  15.0863137278102 10.2924005598318  15.402 10.2924005598318  C 15.7173738979145 10.2924005598318  15.9731586093925 10.0369735890339  15.9736 9.7216  L 15.9976 2.7096  L 15.9976 2.7072  C 15.9976001192955 1.22097386595723  14.7934251824404 0.0167989291021377  13.3080001192955 0.0167989291021377  C 13.3072000794113 0.0167989291021377  13.3064000395657 0.0167992860681284  13.3056 0  L 2.70639999999999 0  C 2.70533269793961 0.0167987282654781  2.7042653952161 0.0167980923980485  2.70319809239805 0.0167980923980485  C 1.21909851265274 0.0167980923980485  0.0159980923980402 1.21989851265274  0.0159980923980402 2.70399809239805  C 0.0159980923980402 2.70506539521609  0.0159987282654765 2.70613269793962  0 2.7072  L 0 13.3072  C 0.0159980148070099 13.308533491779  0.0159970222101219 13.3098669848503  0.0159970222101219 13.311200478107  C 0.0159970222101219 14.7953000578523  1.21909744246481 15.998400478107  2.70319702221012 15.998400478107  C 2.70373134817704 15.998400478107  2.70426567412813 15.998400318738  2.7048 15.9984  L 9.7176 15.9984  C 10.0326232213035 15.9984  10.288 15.7430232213035  10.288 15.428  C 10.288 15.1129767786965  10.0326232213035 14.8576  9.7176 14.8576  Z M 15.832 15.0248  L 13.6536 12.8472  C 14.0665460847707 12.2667124910951  14.2884334952991 11.5720169713301  14.2884334952991 10.859633495299  C 14.2884334952991 8.96595954507923  12.7533074455189 7.43083349529905  10.8596334952991 7.43083349529905  C 8.96595954507922 7.43083349529905  7.43083349529905 8.96595954507923  7.43083349529905 10.859633495299  C 7.43083349529905 12.7533074455189  8.96595954507922 14.2884334952991  10.8596334952991 14.2884334952991  C 11.5720169713301 14.2884334952991  12.2667124910951 14.0665460847707  12.8472 13.6536  L 15.0248 15.8312  C 15.1308037662479 15.9318805161889  15.2714190732163 15.9880153960114  15.4176153960114 15.9880153960114  C 15.7326386173149 15.9880153960114  15.9880153960114 15.7326386173149  15.9880153960114 15.4176153960114  C 15.9880153960114 15.2714190732163  15.9318805161889 15.1308037662479  15.8312 15.0248  Z M 10.8632 13.1464  C 10.8489535968188 13.1466666608287  10.834705010158 13.1468  10.820456111548 13.1468  C 9.55903774293445 13.1468  8.53645611154798 12.1242183686135  8.53645611154798 10.8628  C 8.53645611154798 9.60138163138647  9.55903774293445 8.5788  10.820456111548 8.5788  C 10.834705010158 8.5788  10.8489535968188 8.5789333391713  10.8632 8.5792  C 12.1246183686135 8.5792  13.1472 9.60178163138647  13.1472 10.8632  C 13.1472 12.1246183686135  12.1246183686135 13.1472  10.8632 13.1472  Z M 3.4424 5.156  L 12.5752 5.1584  C 12.8911068769032 5.1584  13.1472 4.90230687690321  13.1472 4.5864  C 13.1472 4.27049312309679  12.8911068769032 4.0144  12.5752 4.0144  L 3.4424 4.012  C 3.12649312309679 4.012  2.87040000000001 4.26809312309679  2.87040000000001 4.584  C 2.87040000000001 4.89990687690321  3.12649312309679 5.156  3.4424 5.156  Z M 3.4432 8.5792  L 6.86719999999999 8.58  C 7.1736973943661 8.56851554127873  7.41624209748124 8.31671248025688  7.41624209748124 8.01  C 7.41624209748124 7.70328751974312  7.1736973943661 7.45148445872127  6.86719999999999 7.44  L 3.4432 7.44  C 3.12861860649638 7.44  2.87360000000001 7.69501860649638  2.87360000000001 8.0096  C 2.87360000000001 8.32418139350362  3.12861860649638 8.5792  3.4432 8.5792  Z M 5.72639999999999 10.8624  L 3.4432 10.8616  C 3.43608382023718 10.8613333567128  3.42896327105447 10.8612  3.42184209748129 10.8612  C 3.1068188761778 10.8612  2.85144209748129 11.1165767786965  2.85144209748129 11.4316  C 2.85144209748129 11.7466232213035  3.1068188761778 12.002  3.42184209748129 12.002  C 3.42896327105447 12.002  3.43608382023718 12.0018666432872  3.4432 12.0016  L 5.72639999999999 12.0016  C 6.04098139350363 12.0016  6.296 11.7465813935036  6.296 11.432  C 6.296 11.1174186064964  6.04098139350363 10.8624  5.72639999999999 10.8624  Z " fill-rule="nonzero" fill="#009688" stroke="none" transform="matrix(1 0 0 1 1238 194 )" />
  </g>
</svg>