<?xml version="1.0" encoding="utf-8"?>
<svg version="1.1" xmlns:xlink="http://www.w3.org/1999/xlink" width="16px" height="16px" xmlns="http://www.w3.org/2000/svg">
  <g>
    <path d="M 7.2 12.016  L 7.2 7.096  L 8.8 7.096  L 8.8 12.016  L 7.2 12.016  Z M 7.376 4.488  C 7.72 4.144  8.28 4.144  8.624 4.488  C 8.968 4.832  8.968 5.392  8.624 5.736  C 8.28 6.08  7.72 6.08  7.376 5.736  C 7.032 5.392  7.032 4.832  7.376 4.488  Z M 1.6 8  C 1.6 4.472  4.472 1.6  8 1.6  C 11.528 1.6  14.4 4.472  14.4 8  C 14.4 11.528  11.528 14.4  8 14.4  C 4.472 14.4  1.6 11.528  1.6 8  Z M 16 8  C 16 3.584  12.416 0  8 0  C 3.584 0  0 3.584  0 8  C 0 12.416  3.584 16  8 16  C 12.416 16  16 12.416  16 8  Z " fill-rule="nonzero" fill="#009688" stroke="none" />
  </g>
</svg>