<?xml version="1.0" encoding="utf-8"?>
<svg version="1.1" xmlns:xlink="http://www.w3.org/1999/xlink" width="16px" height="16px" xmlns="http://www.w3.org/2000/svg">
  <g transform="matrix(1 0 0 1 -336 -30 )">
    <path d="M 8.72463573619632 12.4968178353659  L 6.37120398773006 14.8359184451219  C 5.68100749692428 15.5297220864094  4.73797792854231 15.916822026515  3.75634585889571 15.9092797256098  L 3.74497699386503 15.8641768292683  C 2.76650252324458 15.8724750256333  1.82669904023271 15.4849499898781  1.14150690184049 14.790644054878  C 0.426412582699366 14.1161631691504  0.0162907023653055 13.1828278134259  0.00448619631901729 12.2030678353659  C 0.0238673534957711 11.2248873739348  0.432764572782904 10.294270516581  1.14150690184049 9.61530106707317  L 3.49490030674847 7.27629573170732  C 3.63976357554787 7.14092044301231  3.83035829047507 7.06433308246484  4.02917944785276 7.06160442073171  C 4.22501190991644 7.06262042971077  4.41269056960433 7.13966437215391  4.55216641104294 7.27629573170732  C 4.6970750305479 7.41081633256406  4.77940068517582 7.59901767022961  4.77954371165644 7.79609375  C 4.77984011267802 7.99653556787557  4.69769652576729 8.1883890557493  4.55216641104295 8.32715320121951  L 2.21014187116565 10.7114519817073  C 1.79800235465371 11.1182362956919  1.56496410236741 11.6708464592076  1.56211656441718 12.2481326219512  C 1.56211656441718 13.4526105182927  2.54447852760736 14.4291349085366  3.75632668711656 14.4291349085366  L 3.76771472392638 14.4291349085366  C 4.34719899698972 14.4305664950657  4.9034680912852 14.2028934302147  5.3138995398773 13.7963033536585  L 7.66729294478527 11.4459413109756  C 7.80676104325573 11.3092889100545  7.99443824975273 11.2322182123026  8.19027990797546 11.2311737804878  C 8.59837039877301 11.2249618902439  8.93425996932515 11.5486471036585  8.94066334355828 11.9541920731707  C 8.94081671779141 11.9617759146341  8.94081671779141 11.9693788109756  8.94066334355828 11.976962652439  C 8.93959000741303 12.1716113383009  8.86207436418814 12.3581472601697  8.72463573619632 12.4968178353659  Z M 14.9151457055215 1.11227134146341  C 16.3561541411043 2.54138719512195  16.3586656441718 4.8609756097561  14.9208397239264 6.29321646341463  L 12.5560582822086 8.64357850609756  C 12.4179957405583 8.78230735385901  12.2293912554863 8.85970386976301  12.0330713190184 8.85819359756098  C 11.7315693561307 8.85972716622578  11.4584240917978 8.68175527692934  11.3395897239264 8.40634527439024  C 11.2283007281089 8.12751863997078  11.2904281924617 7.80981709653987  11.4986963190184 7.59272103658537  L 13.8635544478528 5.25365853658537  C 14.718481595092 4.39129192073171  14.7081863496932 3.00331554878049  13.840490797546 2.15354420731707  C 13.6408582755569 1.95807200718066  13.4055871801251 1.80218746368955  13.1472584355828 1.69422637195122  C 12.8789059921888 1.59080291655235  12.5937429801432 1.5371781047273  12.3059240797546 1.5360137195122  C 11.726441730682 1.53460139746802  11.1701760685507 1.76226337939979  10.7597200920245 2.1688262195122  L 8.40630751533742 4.50786966463415  C 8.26550609496361 4.64947332826633  8.07220710830101 4.72713620881359  7.87195168711657 4.72256097560976  C 7.67512752306883 4.72673541835468  7.48551998911981 4.6488882390259  7.34904141104295 4.50786966463415  C 7.21151721622765 4.36928175205793  7.13396736836791 4.18274054537997  7.13295628834356 3.98809070121951  C 7.12837696077728 3.78904016797107  7.2065437119497 3.59691375113892  7.34904141104295 3.45697408536585  L 9.70241564417178 1.1179306402439  C 11.1402607361963 -0.314329268292683  13.4740797546012 -0.316825457317073  14.9151457055215 1.11227134146341  Z M 10.271740797546 6.81217606707317  L 6.8601226993865 10.2028963414634  C 6.71652649264623 10.3402952135368  6.52507278010214 10.4172412552599  6.3257476993865 10.4176638719512  L 6.3257476993865 10.4289634146341  C 6.12990972281127 10.4279008018927  5.94223913850055 10.3508328235787  5.80276073619632 10.2141958841463  C 5.66028757436852 10.0742770000188  5.58214665372711 9.8821734585254  5.5867523006135 9.68315548780488  C 5.58259863321592 9.487495514072  5.66091260667575 9.29901483204657  5.80276073619632 9.16328125  L 9.21353527607362 5.7734375  C 9.34887327134964 5.62941027214662  9.53822170614133 5.54757995079289  9.73650306748466 5.54742759146342  C 9.93818876627411 5.5471645840579  10.1312274325503 5.62880884381764  10.2708780674847 5.7734375  C 10.5596625766871 6.06002286585366  10.5600843558282 6.5250762195122  10.271740797546 6.81217606707317  Z " fill-rule="nonzero" fill="#009688" stroke="none" transform="matrix(1 0 0 1 336 30 )" />
  </g>
</svg>