<?xml version="1.0" encoding="utf-8"?>
<svg version="1.1" xmlns:xlink="http://www.w3.org/1999/xlink" width="13px" height="13px" xmlns="http://www.w3.org/2000/svg">
  <g transform="matrix(1 0 0 1 -456 -477 )">
    <path d="M 6.5 0  C 10.0898508739002 0  13 2.91014912609984  13 6.5  C 13 10.0898508739002  10.0898508739002 13  6.5 13  C 2.91014912609984 13  0 10.0898508739002  0 6.5  C 0 2.91014912609984  2.91014912609984 0  6.5 0  Z M 6.50000008302076 0.928571426757812  C 3.42298504724756 0.928571426757812  0.928571426757813 3.4229849642268  0.928571426757813 6.5  C 0.928571426757813 9.5770150357732  3.4229849642268 12.0714285732422  6.5 12.0714285732422  C 9.5770150357732 12.0714285732422  12.0714286562629 9.5770150357732  12.0714286562629 6.5  C 12.0714286562629 3.4229849642268  9.57701511879395 0.928571426757812  6.50000008302076 0.928571426757812  Z M 3.71428572659943 6.5  C 3.71428572659943 6.24358207743081  3.9221535237568 6.03571428027344  4.17857144632599 6.03571428027344  C 4.17857144632599 6.03571428027344  4.17857142675781 6.03571428027344  4.17857142675781 6.045  L 6.045 6.045  L 6.045 4.17857142675781  C 6.03571429108064 3.92215351183047  6.24358208507266 3.71428572659943  6.5 3.71428572659943  C 6.75641792256919 3.71428572659943  6.96428571972656 3.9221535237568  6.96428571972656 4.17857144632599  C 6.96428571972656 4.17857143328054  6.96428571972656 4.17857143980326  6.955 4.17857142675781  L 6.955 6.045  L 8.82142857324219 6.045  C 8.82142857324219 6.03571428027344  8.82142857324219 6.03571428027344  8.82142857324219 6.03571428027344  C 9.07784649581138 6.03571428027344  9.28571429296875 6.2435820774308  9.28571429296875 6.5  C 9.28571429296875 6.75641792256919  9.07784649581138 6.96428571972656  8.82142857324219 6.96428571972656  C 8.82142857324219 6.96428571972656  8.82142857324219 6.96428571972656  8.82142857324219 6.955  L 6.955 6.955  L 6.955 8.82142857324219  C 6.96428571972656 8.82142857324219  6.96428571972656 8.82142855367401  6.96428571972656 8.82142855367401  C 6.96428571972656 9.0778464762432  6.75641792256919 9.28571427340057  6.5 9.28571427340057  C 6.24358208507266 9.28571427340057  6.03571429108064 9.07784648816953  6.045 8.82142857324219  L 6.045 6.955  L 4.17857142675781 6.955  C 4.17857142675781 6.96428571972656  4.17857144632599 6.96428571972656  4.17857144632599 6.96428571972656  C 3.9221535237568 6.96428571972656  3.71428572659943 6.75641792256919  3.71428572659943 6.5  Z " fill-rule="nonzero" fill="#1a90ff" stroke="none" transform="matrix(1 0 0 1 456 477 )" />
  </g>
</svg>