<?xml version="1.0" encoding="utf-8"?>
<svg version="1.1" xmlns:xlink="http://www.w3.org/1999/xlink" width="18px" height="16px" xmlns="http://www.w3.org/2000/svg">
  <g transform="matrix(1 0 0 1 -330 -30 )">
    <path d="M 17.869390443314 0.362960737179487  C 17.7132721656977 0.0569511217948716  17.3322560864826 -0.0701121794871798  17.0173828125 0.0828926282051281  L 0.421711482558139 8.16079727564103  C 0.109474927325581 8.31380208333333  -0.0201739643895348 8.68721955128205  0.135944313226744 8.99581330128205  C 0.17034429505814 9.06322115384616  0.21533203125 9.1228766025641  0.268250363372093 9.17215544871795  C 0.337029887354651 9.23699919871795  0.419054324127907 9.28625801282051  0.516980832122093 9.31736778846154  L 6.10003860828488 11.0366786858974  L 6.95734011627907 9.9941907051282  L 2.40094703851744 8.59124599358974  L 14.9006086482558 2.50236378205128  L 8.21415561409884 10.4350360576923  C 8.19857018327467 10.4529585718046  8.18441804343911 10.4720322004693  8.17182503633721 10.4920873397436  L 7.39918468386628 11.4334134615385  L 7.39918468386628 15.3388020833333  C 7.39918468386628 15.6837139423077  7.68231513444767 15.9611778846154  8.03422510901163 15.9611778846154  C 8.38613508357558 15.9611778846154  8.66926553415698 15.6836939102564  8.66926553415698 15.3388020833333  L 8.66926553415698 11.8223758012821  L 14.7418332122093 13.6894831730769  C 14.8132698946221 13.7102363782051  14.8847270167151 13.7205929487179  14.9561432594477 13.7179887820513  C 15.2630859375 13.7257612179487  15.5409020712209 13.5131209935897  15.5991142805233 13.2071314102564  L 17.924945494186 0.757071314102566  C 17.9328760901163 0.715584935897438  17.9355128088663 0.671494391025643  17.9355128088663 0.630008012820515  C 17.932855650436 0.541826923076926  17.9143373001454 0.448477564102566  17.8693495639535 0.362920673076925  Z M 14.4772006722384 12.3047475961538  L 9.56358330305233 10.7928886217949  L 16.2420648619186 2.86798878205128  L 14.4771802325581 12.3047275641026  Z " fill-rule="nonzero" fill="#009688" stroke="none" transform="matrix(1 0 0 1 330 30 )" />
  </g>
</svg>