<?xml version="1.0" encoding="utf-8"?>
<svg version="1.1" xmlns:xlink="http://www.w3.org/1999/xlink" width="14px" height="16px" xmlns="http://www.w3.org/2000/svg">
  <g transform="matrix(1 0 0 1 -333 -30 )">
    <path d="M 0 0.889000000000001  L 0 15.11  C 0.0397727272727268 15.601  0.429545454545452 15.999  0.909801136363636 15.999  L 3.51988636363636 16  C 4.00151368154609 15.9961709745028  4.389942611006 15.6024221644731  4.389942611006 15.1180275564514  C 4.389942611006 14.6280275564514  4.00014204545455 14.222  3.51988636363636 14.16  L 2 14.16  L 2 2  L 12.1704545454545 2  L 12.1704545454545 6.222  C 12.2201704545455 6.713  12.6099431818182 7.112  13.0901988636364 7.112  C 13.5718333165836 7.10818091529454  13.9602732099541 6.71442911787946  13.9602732099541 6.23002741274927  C 13.9602732099541 6.22701821605718  13.9602578973446 6.22400903906845  13.9204545454545 6.221  L 13.9204545454545 0.89  C 13.9602272727273 0.398  13.5704545454545 0  13.0901988636364 0  L 0.909801136363636 0  C 0.429545454545452 0  0.0397727272727268 0.398  0 0.889000000000001  Z M 10.5097339717618 15.9971887886519  C 10.1560294535164 15.9971887886519  9.83761411713537 15.7815914871281  9.70454545454545 15.452  C 9.56912948873618 15.1184205683432  9.64507420010156 14.7357397535361  9.89744318181818 14.48  L 11.0200284090909 13.28  L 7.03480113636364 13.28  C 6.55317381845391 13.3291709745028  6.164744888994 12.9354221644731  6.164744888994 12.4510275564514  C 6.164744888994 11.9610275564514  6.55454545454545 11.556  7.03480113636364 11.6  L 11.0200284090909 11.6  L 9.89644886363637 10.409  C 9.60138965335631 10.0543391651513  9.62159391191566 9.53251168134851  9.94318181818182 9.202  C 10.2622849520787 8.87446158310961  10.7800871870375 8.85428044509432  11.1234375 9.156  L 13.6470170454545 11.733  C 13.8578125 11.895  13.9950284090909 12.153  13.9950284090909 12.444  C 13.9950284090909 12.714  13.8767045454545 12.957  13.6907670454545 13.12  L 11.1234375 15.742  C 10.960527177215 15.905417397198  10.7398261541641 15.9971887886519  10.5097339717618 15.9971887886519  Z " fill-rule="nonzero" fill="#009688" stroke="none" transform="matrix(1 0 0 1 333 30 )" />
  </g>
</svg>