<?xml version="1.0" encoding="utf-8"?>
<svg version="1.1" xmlns:xlink="http://www.w3.org/1999/xlink" width="14px" height="16px" xmlns="http://www.w3.org/2000/svg">
  <g transform="matrix(1 0 0 1 -304 -30 )">
    <path d="M 14 0.889000000000001  L 14 15.11  C 13.9602272727273 15.601  13.5704545454545 15.999  13.0901988636364 15.999  L 10.4801136363636 16  C 9.99848631845391 15.9961709745028  9.610057388994 15.6024221644731  9.610057388994 15.1180275564514  C 9.610057388994 14.6280275564514  9.99985795454545 14.222  10.4801136363636 14.16  L 12 14.16  L 12 2  L 1.82954545454545 2  L 1.82954545454545 6.222  C 1.77982954545455 6.713  1.39005681818182 7.112  0.909801136363636 7.112  C 0.428166683416385 7.10818091529454  0.0397267900459048 6.71442911787945  0.0397267900459048 6.23002741274927  C 0.0397267900459048 6.22701821605718  0.0397421026553666 6.22400903906845  0.0795454545454545 6.221  L 0.0795454545454545 0.89  C 0.0397727272727273 0.398000000000002  0.429545454545455 0  0.909801136363636 0  L 13.0901988636364 0  C 13.5704545454545 0  13.9602272727273 0.398000000000002  14 0.889000000000001  Z M 4.38473397176179 15.9971887886519  C 4.0310294535164 15.9971887886519  3.71261411713537 15.7815914871281  3.57954545454545 15.452  C 3.44412948873617 15.1184205683432  3.52007420010156 14.7357397535361  3.77244318181818 14.48  L 4.89502840909091 13.28  L 0.909801136363636 13.28  C 0.428173818453907 13.3291709745028  0.0397448889939963 12.9354221644731  0.0397448889939963 12.4510275564514  C 0.0397448889939963 11.9610275564514  0.429545454545453 11.556  0.909801136363636 11.6  L 4.89502840909091 11.6  L 3.77144886363637 10.409  C 3.47638965335632 10.0543391651513  3.49659391191566 9.53251168134851  3.81818181818182 9.202  C 4.13728495207865 8.87446158310961  4.65508718703754 8.85428044509432  4.9984375 9.156  L 7.52201704545455 11.733  C 7.7328125 11.895  7.87002840909091 12.153  7.87002840909091 12.444  C 7.87002840909091 12.714  7.75170454545455 12.957  7.56576704545454 13.12  L 4.9984375 15.742  C 4.83552717721499 15.905417397198  4.61482615416409 15.9971887886519  4.38473397176179 15.9971887886519  Z " fill-rule="nonzero" fill="#009688" stroke="none" transform="matrix(1 0 0 1 304 30 )" />
  </g>
</svg>