<?xml version="1.0" encoding="utf-8"?>
<svg version="1.1" xmlns:xlink="http://www.w3.org/1999/xlink" width="16px" height="15px" xmlns="http://www.w3.org/2000/svg">
  <g transform="matrix(1 0 0 1 -1260 -69 )">
    <path d="M 8.98845883121597 14.9657983813214  C 8.72656467513612 14.9669574728994  8.46810145916515 14.9078435228332  8.23308291833031 14.7919338058567  L 6.17681356079855 13.7174506891647  C 5.67075172413793 13.4641879432972  5.35625001814882 12.9680943493403  5.36082458076225 12.4302732378476  L 5.36082458076225 6.31545592289204  C 5.35739186691537 6.22251801799201  5.310999377085 6.13663781115629  5.2355957168784 6.08363648893903  L 0.483188994555354 2.5118784421445  L 0.431725067150635 2.45392358365625  C -0.0125800798548094 2.03780769117575  -0.116651542649728 1.41884977191347  0.132090715063521 0.877551385686957  C 0.373971121597096 0.342048472065532  0.937215085299456 -0.00220338941482334  1.55649755353902 0  L 14.3824490453721 0  C 15.0028751506352 0.00648984156570346  15.5609727186933 0.34552577622995  15.8188641306715 0.877551385686958  C 16.0744682395644 1.40783835777701  15.9646785626134 2.02969400598421  15.5409589836661 2.45450312944524  L 15.4780586424682 2.51245800264875  L 10.6627515644283 6.12130714180605  C 10.5922667060901 6.1772325855713  10.5504536732428 6.26241464686666  10.5489591288566 6.35312659047432  L 10.5489591288566 13.4949040319812  C 10.5603955571688 14.3178630548879  9.85705537568058 14.9657983813214  8.98845883121597 14.9657983813214  Z M 1.2986061415608 1.64081689802325  L 6.03157094736842 5.18185885613381  C 6.40325478039927 5.46236038652082  6.62054687477314 5.87905582479031  6.62054687477314 6.32356960808358  L 6.62054687477314 12.4383869230392  C 6.62054687477314 12.5456034090352  6.6720107876588 12.6528199097464  6.77608226497278 12.7003428851719  L 8.83235162250454 13.7551213567469  C 8.93380087072714 13.8032918047211  9.05112229442713 13.8032918047211  9.15257154264973 13.7551213567469  C 9.24689077855309 13.7029976900526  9.3059705693821 13.6032007442077  9.30696329582577 13.4943244714769  L 9.30696329582577 6.36413801932604  C 9.30696329582577 5.9184651444548  9.51453441742287 5.50292879776328  9.88621825045372 5.22242726737627  L 14.6294758475499 1.64313509589444  C 14.7009284377551 1.55549861972428  14.7131233046924 1.43281750417092  14.6603541923775 1.33249703732771  C 14.6041904750398 1.2299609508743  14.4970087657895 1.16696439037806  14.3813054083485 1.16848478442145  L 1.55764119056261 1.16848478442145  C 1.43355596370236 1.16848478442145  1.33005631941924 1.2264396429097  1.27859240653358 1.33249703732771  C 1.22180260206851 1.43048829910763  1.22996905450696 1.55372079498536  1.29917797459165 1.64313509589444  L 1.29917797459165 1.64081689802325  Z M 15.7897012413793 7.5446785157208  C 15.6744359105872 7.65563042288769  15.5215171796231 7.71745852128854  15.3625507368421 7.71738399960759  L 11.9888051397459 7.71738399960759  C 11.6548615027223 7.70927031441605  11.3906800725953 7.45079164173248  11.3963982867514 7.13725585422083  C 11.3963982867514 6.81734501888458  11.6628670054446 6.55712770883406  11.9888051397459 6.5571276941188  L 15.3625507368421 6.5571276941188  C 15.6884888711434 6.5571276941188  15.9555294083485 6.81734501888458  15.9555294083485 7.13667629371658  C 15.9606031648866 7.29049754045  15.9002015161708 7.43910924700854  15.7897012413793 7.5446785157208  Z M 15.7897012413793 9.77478154215922  C 15.6742825829088 9.8854204133091  15.521415977773 9.94702003108631  15.3625507368421 9.94690748025703  L 11.9888051397459 9.94690748025703  C 11.6548615027223 9.93879379506548  11.3906800725953 9.68031512238191  11.3963982867514 9.366779320155  C 11.3963982867514 9.04628893902978  11.6628670054446 8.78549206847501  11.9888051397459 8.78549208319027  L 15.3625507368421 8.78549208319027  C 15.6884888711434 8.78549208319027  15.9555294083485 9.047448045323  15.9555294083485 9.366779320155  C 15.9603061912581 9.52054606018843  15.8999528274505 9.66903896696641  15.7897012413793 9.77478154215922  Z M 15.3625507368421 12.1770105066954  L 11.9888051397459 12.1770105066954  C 11.6548615027223 12.1688968215039  11.3901082540835 11.9092590572424  11.3963982867514 11.5957232550155  C 11.3963982867514 11.2769715259724  11.6628670054446 11.0155951096287  11.9888051397459 11.0155951096287  L 15.3625507368421 11.0155951096287  C 15.6884888711434 11.0155951096287  15.9555294083485 11.2775510717614  15.9555294083485 11.5951437092265  C 15.9595548984306 11.7487178810739  15.8990726196156 11.8968059409208  15.7891294228675 12.0025663707264  C 15.6738356459012 12.113250616822  15.5213528339408 12.1753994359719  15.3625507368421 12.1764309609065  Z " fill-rule="nonzero" fill="#7f7f7f" stroke="none" transform="matrix(1 0 0 1 1260 69 )" />
  </g>
</svg>